<svg width="170" height="170" viewBox="0 0 170 170" fill="none" xmlns="http://www.w3.org/2000/svg">
<path d="M83.2966 163.044C127.721 163.044 163.734 142.251 163.734 116.603C163.734 90.9546 127.721 70.1624 83.2966 70.1624C38.8723 70.1624 2.85938 90.9546 2.85938 116.603C2.85938 142.251 38.8723 163.044 83.2966 163.044Z" fill="#F0F0F0"/>
<path d="M68.2074 156.291C67.3493 156.303 66.5026 156.094 65.7492 155.683L26.5506 133.049C26.1263 132.864 25.7652 132.558 25.5117 132.171C25.2581 131.784 25.123 131.331 25.123 130.868C25.123 130.405 25.2581 129.952 25.5117 129.564C25.7652 129.177 26.1263 128.872 26.5506 128.687L95.5706 88.8352C96.3289 88.4356 97.1733 88.2268 98.0305 88.2268C98.8877 88.2268 99.732 88.4356 100.49 88.8352L139.689 111.469C140.113 111.654 140.474 111.959 140.728 112.347C140.981 112.734 141.117 113.187 141.117 113.65C141.117 114.113 140.981 114.566 140.728 114.953C140.474 115.341 140.113 115.646 139.689 115.831L70.669 155.683C69.9142 156.093 69.0665 156.303 68.2074 156.291Z" fill="#E0E0E0"/>
<path d="M138.088 108.878L134.263 106.838C134.263 106.838 133.97 100.99 134.426 96.356C135.068 89.8416 139.91 82.28 144.925 84.116C149.94 85.952 142.627 92.5888 140.998 98.1104C139.369 103.632 138.088 108.878 138.088 108.878Z" fill="#C5E3FF"/>
<path opacity="0.1" d="M138.088 108.878L134.263 106.838C134.263 106.838 133.97 100.99 134.426 96.356C135.068 89.8416 139.91 82.28 144.925 84.116C149.94 85.952 142.627 92.5888 140.998 98.1104C139.369 103.632 138.088 108.878 138.088 108.878Z" fill="black"/>
<path d="M136.218 108.198C136.262 108.196 136.304 108.177 136.335 108.145C136.365 108.112 136.382 108.069 136.381 108.025C135.888 93.5544 143.092 86.2648 143.164 86.2036C143.18 86.1881 143.192 86.1696 143.201 86.1491C143.209 86.1287 143.214 86.1068 143.214 86.0846C143.214 86.0624 143.209 86.0405 143.201 86.0201C143.192 85.9996 143.18 85.9811 143.164 85.9656C143.148 85.9497 143.129 85.937 143.108 85.9284C143.088 85.9198 143.066 85.9153 143.043 85.9153C143.021 85.9153 142.998 85.9198 142.978 85.9284C142.957 85.937 142.938 85.9497 142.922 85.9656C142.851 86.0404 135.541 93.4218 136.037 108.038C136.039 108.061 136.044 108.083 136.054 108.103C136.064 108.123 136.078 108.141 136.094 108.156C136.111 108.171 136.131 108.182 136.152 108.189C136.173 108.197 136.195 108.2 136.218 108.198Z" fill="white"/>
<path d="M140.049 110.034L138.06 108.885C137.754 105.616 138.177 102.319 139.298 99.2324C141.141 94.231 145.901 91.5042 148.09 92.2488C150.766 93.16 150.783 95.7202 149.811 97.4032C148.662 99.3888 141.494 104.411 140.049 110.034Z" fill="#C5E3FF"/>
<path d="M139.002 109.596C139.047 109.596 139.09 109.578 139.122 109.546C139.154 109.514 139.172 109.471 139.172 109.426C139.131 100.276 147.723 94.095 147.808 94.0338C147.843 94.0071 147.865 93.9682 147.872 93.9252C147.879 93.8821 147.868 93.8382 147.844 93.8024C147.819 93.7666 147.781 93.7418 147.738 93.733C147.696 93.7241 147.651 93.732 147.614 93.755C147.526 93.8196 138.774 100.106 138.832 109.429C138.832 109.451 138.836 109.473 138.845 109.494C138.854 109.514 138.866 109.533 138.882 109.548C138.898 109.564 138.917 109.576 138.937 109.584C138.958 109.592 138.98 109.596 139.002 109.596Z" fill="white"/>
<path d="M23.4602 112.846V104.876C23.4602 104.876 23.0522 100.378 19.9038 96.968C16.7554 93.5578 13.9402 94.7172 13.0188 96.3356C12.0974 97.954 14.1884 101.028 15.5246 102.758C17.1328 104.839 23.4602 114.505 23.4602 118.833V112.846Z" fill="#C5E3FF"/>
<g opacity="0.2">
<path d="M23.4602 112.846V104.876C23.4602 104.876 23.0522 100.378 19.9038 96.968C16.7554 93.5578 13.9402 94.7172 13.0188 96.3356C12.0974 97.954 14.1884 101.028 15.5246 102.758C17.1328 104.839 23.4602 114.505 23.4602 118.833V112.846Z" fill="black"/>
</g>
<path d="M23.46 111.588C23.4132 111.588 23.3679 111.571 23.3324 111.54C23.2969 111.51 23.2734 111.468 23.2662 111.421C21.8314 102.731 15.215 96.7674 15.1504 96.7096C15.1116 96.6753 15.088 96.6271 15.0848 96.5754C15.0817 96.5238 15.0991 96.473 15.1334 96.4342C15.1676 96.3954 15.2159 96.3719 15.2676 96.3687C15.3192 96.3655 15.37 96.3829 15.4088 96.4172C15.4768 96.4784 22.2088 102.537 23.6538 111.36C23.6616 111.412 23.6489 111.464 23.6183 111.506C23.5878 111.548 23.5419 111.576 23.4906 111.585L23.46 111.588Z" fill="white"/>
<path d="M23.5008 113.9C23.5008 113.9 23.7626 113.108 22.5998 112.907C21.437 112.707 20.9882 111.741 20.8794 110.116C20.7706 108.491 20.281 107.328 18.819 107.09C17.357 106.852 16.1874 107.583 15.2388 106.852C14.2902 106.121 11.8388 104.356 9.79885 105.152C7.75885 105.947 8.43885 107.702 9.48605 108.831C10.5332 109.959 10.846 110.344 10.0436 112.18C9.24125 114.016 9.82265 115.736 11.6994 116.164C13.5762 116.593 14.6302 116.375 14.6574 118.436C14.6846 120.496 14.9702 121.414 16.0174 122.223C17.0646 123.032 20.2844 122.665 21.6308 122.978C22.0351 123.081 22.4126 123.269 22.7381 123.53C23.0636 123.791 23.3294 124.119 23.5178 124.491L23.5008 113.9Z" fill="#C5E3FF"/>
<path d="M23.5009 122.38C23.4673 122.379 23.4346 122.369 23.4072 122.349C23.3798 122.33 23.3591 122.302 23.3479 122.271C19.9309 112.118 12.1925 108.018 12.1279 107.991C12.09 107.971 12.0616 107.937 12.0488 107.896C12.0361 107.855 12.0401 107.811 12.0599 107.773C12.0797 107.735 12.1138 107.707 12.1546 107.694C12.1954 107.681 12.2396 107.685 12.2775 107.705C12.3557 107.746 20.2063 111.901 23.6675 122.179C23.6744 122.199 23.6772 122.22 23.6758 122.242C23.6744 122.263 23.6688 122.283 23.6593 122.302C23.6498 122.321 23.6366 122.338 23.6205 122.352C23.6044 122.366 23.5857 122.376 23.5655 122.383L23.5009 122.38Z" fill="white"/>
<path d="M18.598 113.529H18.5606C16.3302 113.019 12.7568 113.295 12.7228 113.298C12.68 113.302 12.6375 113.289 12.6044 113.261C12.5713 113.234 12.5503 113.195 12.546 113.152C12.5432 113.109 12.5572 113.066 12.5851 113.033C12.613 113 12.6526 112.98 12.6956 112.975C12.8452 112.975 16.354 112.693 18.632 113.217C18.6708 113.225 18.7052 113.247 18.7285 113.279C18.7518 113.311 18.7624 113.351 18.7581 113.39C18.7539 113.43 18.7352 113.466 18.7056 113.492C18.676 113.519 18.6377 113.533 18.598 113.533V113.529Z" fill="white"/>
<path d="M20.4171 118.408C19.3971 118.408 18.3159 118.344 18.2479 118.34C18.2049 118.337 18.1649 118.317 18.1364 118.285C18.1079 118.252 18.093 118.21 18.0949 118.167C18.0962 118.146 18.1017 118.125 18.1112 118.106C18.1206 118.087 18.1339 118.07 18.15 118.056C18.1662 118.042 18.185 118.031 18.2053 118.025C18.2256 118.018 18.247 118.016 18.2683 118.017C18.2921 118.017 20.7843 118.17 21.7567 118.017C21.7789 118.011 21.8024 118.009 21.8254 118.012C21.8484 118.015 21.8704 118.023 21.8901 118.036C21.9097 118.048 21.9265 118.065 21.9393 118.084C21.9521 118.103 21.9606 118.125 21.9642 118.148C21.9679 118.171 21.9666 118.195 21.9605 118.217C21.9544 118.239 21.9435 118.26 21.9287 118.278C21.9139 118.296 21.8954 118.31 21.8746 118.321C21.8537 118.331 21.8309 118.336 21.8077 118.337C21.3464 118.393 20.8817 118.417 20.4171 118.408Z" fill="white"/>
<path d="M17.5508 112.339C17.5084 112.336 17.4689 112.316 17.4405 112.285C17.412 112.253 17.3967 112.212 17.3978 112.169C17.4754 111.008 17.717 109.863 18.1152 108.769C18.1311 108.729 18.1622 108.697 18.2016 108.68C18.2411 108.663 18.2858 108.662 18.326 108.678C18.3652 108.694 18.3966 108.724 18.4138 108.763C18.4309 108.801 18.4323 108.845 18.4178 108.885C18.0389 109.949 17.8101 111.06 17.7378 112.186C17.7371 112.209 17.7316 112.232 17.7215 112.252C17.7114 112.273 17.6969 112.291 17.6792 112.306C17.6615 112.32 17.6408 112.331 17.6187 112.336C17.5965 112.342 17.5733 112.343 17.5508 112.339Z" fill="white"/>
<path d="M25.4082 127.888C25.4524 128.492 25.6386 129.078 25.9517 129.597C26.2648 130.117 26.696 130.555 27.2102 130.876L66.4088 153.513C66.9666 153.797 67.5834 153.945 68.2091 153.945C68.8348 153.945 69.4516 153.797 70.0094 153.513L139.029 113.662C139.568 113.37 140.018 112.939 140.332 112.412C140.646 111.886 140.811 111.284 140.811 110.672C140.811 110.059 140.646 109.458 140.332 108.931C140.018 108.405 139.568 107.973 139.029 107.681L99.8274 85.0442C99.2696 84.7608 98.6528 84.6131 98.0271 84.6131C97.4014 84.6131 96.7846 84.7608 96.2268 85.0442L27.2 124.896C26.6878 125.219 26.2588 125.658 25.9475 126.178C25.6363 126.698 25.4516 127.283 25.4082 127.888Z" fill="#C5E3FF"/>
<path opacity="0.5" d="M140.835 110.67C140.791 111.275 140.605 111.861 140.293 112.381C139.981 112.901 139.55 113.34 139.036 113.662L70.0164 153.513C69.463 153.807 68.8442 153.956 68.2178 153.945V150.045C68.8442 150.056 69.463 149.907 70.0164 149.614L139.036 109.762C139.907 109.259 140.016 108.484 139.376 107.913C139.798 108.245 140.146 108.662 140.397 109.137C140.648 109.612 140.797 110.134 140.835 110.67Z" fill="black"/>
<path opacity="0.3" d="M27.2002 126.976L66.409 149.6C66.9668 149.883 67.5836 150.031 68.2093 150.031C68.835 150.031 69.4518 149.883 70.0096 149.6L139.03 109.745C140.022 109.174 140.022 108.242 139.03 107.668L99.8276 85.0306C99.2698 84.7472 98.653 84.5995 98.0273 84.5995C97.4016 84.5995 96.7848 84.7472 96.227 85.0306L27.2002 124.896C26.2142 125.46 26.2142 126.402 27.2002 126.976Z" fill="black"/>
<path opacity="0.7" d="M68.2109 150.045V153.942C67.5835 153.956 66.9629 153.808 66.4089 153.513L27.2001 130.876C26.6731 130.598 26.2291 130.185 25.9135 129.68C25.5978 129.174 25.4217 128.594 25.403 127.999C25.3844 127.403 25.5238 126.813 25.8073 126.289C26.0907 125.765 26.5079 125.325 27.0165 125.015C26.2107 125.593 26.2753 126.439 27.2001 126.976L66.4089 149.6C66.962 149.899 67.5822 150.053 68.2109 150.045Z" fill="black"/>
<path d="M23.7185 124.96C22.7869 124.423 22.8379 123.515 22.8379 122.366V68.221C22.8718 67.5966 23.0523 66.9889 23.3648 66.4472C23.6772 65.9056 24.1129 65.4451 24.6365 65.1032L93.6565 25.2518C94.1919 24.9673 94.7868 24.8132 95.393 24.8019C95.9991 24.7907 96.5994 24.9227 97.1449 25.1872C98.0799 25.7244 98.0289 26.6356 98.0289 27.7814V81.94C97.9952 82.5648 97.8144 83.1729 97.5013 83.7147C97.1881 84.2565 96.7515 84.7167 96.2269 85.0578L27.2001 124.896C26.6656 125.179 26.0719 125.333 25.467 125.344C24.8621 125.355 24.2631 125.224 23.7185 124.96Z" fill="#C5E3FF"/>
<path opacity="0.3" d="M98.0358 27.7814C98.0358 26.6356 97.23 26.1698 96.2338 26.741L27.2002 66.5958C26.666 66.9318 26.2279 67.4003 25.9286 67.9558L23.3582 66.4598C23.6608 65.9056 24.0996 65.4376 24.6332 65.0998L93.6532 25.2518C94.1885 24.9673 94.7835 24.8132 95.3896 24.8019C95.9958 24.7907 96.596 24.9227 97.1416 25.1872C98.0834 25.7244 98.0358 26.6356 98.0358 27.7814Z" fill="black"/>
<path opacity="0.5" d="M25.4082 69.7V123.859C25.4082 125.004 26.214 125.47 27.2068 124.879L96.22 85.0442C96.7446 84.7031 97.1812 84.2429 97.4944 83.7011C97.8075 83.1593 97.9883 82.5513 98.022 81.9264V27.7814C98.022 26.6356 97.2162 26.1698 96.22 26.7614L27.2 66.5958C26.6795 66.9371 26.2462 67.3958 25.935 67.9349C25.6239 68.474 25.4434 69.0785 25.4082 69.7Z" fill="black"/>
<path opacity="0.7" d="M26.9961 125.004C26.4798 125.237 25.9187 125.354 25.3524 125.347C24.786 125.339 24.2283 125.207 23.7185 124.96C22.7869 124.423 22.8379 123.515 22.8379 122.366V68.221C22.8588 67.5951 23.0402 66.9851 23.3649 66.4496L25.9353 67.9354C25.6145 68.4701 25.4333 69.0769 25.4083 69.7V123.859C25.4083 124.923 26.1019 125.402 26.9961 125.004Z" fill="black"/>
<path d="M28.1759 68.68L94.7275 30.26C95.3225 29.92 95.8053 30.1954 95.8053 30.8822V78.1422C95.7858 78.5168 95.6779 78.8814 95.4906 79.2064C95.3033 79.5314 95.0418 79.8075 94.7275 80.0122L28.1759 118.432C27.5809 118.772 27.0981 118.497 27.0981 117.807V70.5466C27.1183 70.1726 27.2263 69.8086 27.4136 69.4843C27.6009 69.16 27.8621 68.8844 28.1759 68.68Z" fill="#FAFAFA"/>
<path d="M42.1056 80.5596L81.1818 58.0006C82.3412 57.3206 83.2796 57.8068 83.2796 59.0614C83.2796 60.316 82.3412 61.88 81.1818 62.56L42.1056 85.102C40.9496 85.782 40.0112 85.2958 40.0112 84.0412C40.0112 82.7866 40.9496 81.2294 42.1056 80.5596Z" fill="#455A64"/>
<path d="M82.6202 59.0614C82.6202 60.0814 81.8076 61.4414 80.8454 61.982L72.8656 66.5924L41.7692 84.541C41.573 84.6718 41.3451 84.747 41.1096 84.7586C40.8002 84.7586 40.6404 84.5172 40.6404 84.0412C40.6404 83.0212 41.453 81.6612 42.4152 81.1172L72.8656 63.5392L81.4914 58.5582C81.6901 58.4301 81.9184 58.3552 82.1544 58.3406C82.4774 58.3406 82.6202 58.5854 82.6202 59.0614Z" fill="#C5E3FF"/>
<path d="M82.6202 59.0614C82.6202 60.0814 81.8076 61.4414 80.8454 61.982L72.8656 66.5924L41.7692 84.541C41.573 84.6718 41.3451 84.747 41.1096 84.7586C40.8002 84.7586 40.6404 84.5172 40.6404 84.0412C40.6404 83.0212 41.453 81.6612 42.4152 81.1172L72.8656 63.5392L81.4914 58.5582C81.6901 58.4301 81.9184 58.3552 82.1544 58.3406C82.4774 58.3406 82.6202 58.5854 82.6202 59.0614Z" fill="#C5E3FF"/>
<path d="M82.6201 59.0614C82.6201 60.0814 81.8075 61.4414 80.8453 61.982L72.8655 66.5924V63.5324L81.4913 58.5514C81.69 58.4233 81.9183 58.3484 82.1543 58.3338C82.4773 58.3406 82.6201 58.5854 82.6201 59.0614Z" fill="#263238"/>
<path opacity="0.6" d="M51.3638 75.9594L42.4286 81.1172C41.4664 81.6714 40.6538 83.011 40.6538 84.0412C40.6538 84.5172 40.8136 84.7586 41.123 84.7586C41.3585 84.747 41.5864 84.6718 41.7826 84.541L51.3638 79.0126V75.9594Z" fill="white"/>
<path opacity="0.4" d="M51.3672 79.0092L62.1962 72.76V69.7068L51.3672 75.9594V79.0092Z" fill="white"/>
<path d="M54.2844 86.1934C54.2967 86.1829 54.3124 86.1771 54.3286 86.1771C54.3448 86.1771 54.3605 86.1829 54.3728 86.1934C54.3862 86.2087 54.3964 86.2265 54.4028 86.2457C54.4092 86.265 54.4117 86.2854 54.4102 86.3056V86.802C54.4096 86.8563 54.3968 86.9097 54.3728 86.9584C54.3547 87.0017 54.3239 87.0385 54.2844 87.0638L52.2886 88.2164C52.2772 88.2274 52.262 88.2336 52.2461 88.2336C52.2302 88.2336 52.215 88.2274 52.2036 88.2164C52.1902 88.2011 52.18 88.1833 52.1736 88.1641C52.1672 88.1448 52.1647 88.1245 52.1662 88.1042V83.572C52.1673 83.5178 52.18 83.4644 52.2036 83.4156C52.2206 83.3727 52.2502 83.3359 52.2886 83.3102L52.6592 83.096C52.671 83.0857 52.6861 83.0801 52.7017 83.0801C52.7173 83.0801 52.7324 83.0857 52.7442 83.096C52.7576 83.1113 52.7678 83.1291 52.7742 83.1483C52.7806 83.1676 52.7831 83.188 52.7816 83.2082V87.0536L54.2844 86.1934Z" fill="#455A64"/>
<path d="M56.0763 82.3174C56.2119 82.2283 56.3697 82.1788 56.5319 82.1746C56.6564 82.1756 56.7767 82.2201 56.8719 82.3004C56.9788 82.3985 57.0605 82.521 57.1099 82.6574C57.172 82.8323 57.2064 83.0159 57.2119 83.2014C57.2119 83.2388 57.2119 83.2932 57.2119 83.3578V83.7488C57.2119 83.81 57.2119 83.8644 57.2119 83.9086C57.1998 84.1383 57.1645 84.3661 57.1065 84.5886C57.0503 84.8047 56.9717 85.0144 56.8719 85.2142C56.7804 85.403 56.6662 85.58 56.5319 85.7412C56.4025 85.8938 56.2485 86.0237 56.0763 86.1254C55.941 86.2121 55.7847 86.2603 55.6241 86.2648C55.4999 86.2651 55.3796 86.2217 55.2841 86.1424C55.1777 86.0514 55.0968 85.9342 55.0495 85.8024C54.9864 85.6288 54.9509 85.4464 54.9441 85.2618C54.9441 85.221 54.9441 85.17 54.9441 85.1054C54.9441 85.0408 54.9441 84.9796 54.9441 84.915C54.9441 84.8504 54.9441 84.7824 54.9441 84.7178C54.9441 84.6532 54.9441 84.5954 54.9441 84.5512C54.9535 84.3215 54.9877 84.0935 55.0461 83.8712C55.104 83.654 55.1837 83.4433 55.2841 83.2422C55.3748 83.0519 55.489 82.8737 55.6241 82.7118C55.7502 82.5546 55.9034 82.421 56.0763 82.3174ZM56.6305 83.5788C56.6274 83.4624 56.6044 83.3474 56.5625 83.2388C56.5374 83.175 56.492 83.1213 56.4333 83.0858C56.3782 83.0669 56.3184 83.0669 56.2633 83.0858C56.1974 83.1024 56.1344 83.1287 56.0763 83.164C56.0093 83.2025 55.9466 83.2481 55.8893 83.3C55.8242 83.3635 55.7682 83.4355 55.7227 83.5142C55.6675 83.6095 55.6241 83.7111 55.5935 83.8168C55.5548 83.9473 55.532 84.082 55.5255 84.218C55.5255 84.2554 55.5255 84.3064 55.5255 84.3608C55.5255 84.4152 55.5255 84.4764 55.5255 84.5376C55.5255 84.5988 55.5255 84.66 55.5255 84.7178C55.5255 84.7756 55.5255 84.8198 55.5255 84.8504C55.5285 84.9613 55.5515 85.0707 55.5935 85.1734C55.6186 85.2372 55.664 85.2909 55.7227 85.3264C55.7747 85.3509 55.8334 85.3569 55.8893 85.3434C55.9553 85.3289 56.0185 85.3036 56.0763 85.2686C56.1431 85.2285 56.2058 85.1818 56.2633 85.1292C56.3293 85.0658 56.3865 84.9937 56.4333 84.915C56.4889 84.82 56.5324 84.7183 56.5625 84.6124C56.5998 84.4816 56.6226 84.347 56.6305 84.2112C56.6305 84.1772 56.6305 84.133 56.6305 84.0718V83.7318C56.6339 83.6604 56.6305 83.6128 56.6305 83.5788Z" fill="#455A64"/>
<path d="M57.9736 82.1916C57.991 82.0669 58.0195 81.9441 58.0586 81.8244C58.1064 81.6779 58.169 81.5366 58.2456 81.4028C58.3294 81.2546 58.4286 81.1156 58.5414 80.988C58.6576 80.8528 58.7955 80.7379 58.9494 80.648C59.0761 80.5685 59.219 80.5185 59.3676 80.5018C59.4248 80.4951 59.4828 80.4998 59.5382 80.5156C59.5937 80.5313 59.6454 80.5578 59.6906 80.5936C59.7921 80.6837 59.8643 80.8021 59.898 80.9336C59.9502 81.1263 59.9743 81.3256 59.9694 81.5252V83.589C59.9701 83.642 59.9585 83.6944 59.9354 83.742C59.9181 83.7867 59.8872 83.8247 59.847 83.8508L59.507 84.048C59.4956 84.059 59.4804 84.0652 59.4645 84.0652C59.4486 84.0652 59.4334 84.059 59.422 84.048C59.4086 84.0327 59.3984 84.0149 59.392 83.9957C59.3856 83.9764 59.3831 83.9561 59.3846 83.9358V83.7012C59.3164 83.8819 59.2237 84.0523 59.1092 84.2078C58.9875 84.3763 58.8309 84.5166 58.6502 84.6192C58.5472 84.6844 58.4311 84.7262 58.3102 84.7416C58.2173 84.7493 58.1249 84.7213 58.0518 84.6634C57.9741 84.5958 57.9174 84.5073 57.8886 84.4084C57.8477 84.2764 57.8282 84.1386 57.8308 84.0004C57.8279 83.6913 57.9053 83.3867 58.0552 83.1164C58.2077 82.8417 58.4108 82.5983 58.6536 82.399L59.3948 81.7734C59.3948 81.5796 59.354 81.4708 59.2724 81.4334C59.2203 81.4195 59.1658 81.4175 59.1128 81.4276C59.0599 81.4376 59.0098 81.4593 58.9664 81.4912C58.8984 81.5292 58.8384 81.58 58.7896 81.6408C58.7412 81.7051 58.7001 81.7747 58.6672 81.8482C58.6456 81.8906 58.6193 81.9305 58.589 81.9672C58.5683 81.9932 58.5429 82.0151 58.5142 82.0318L58.0926 82.2766C58.081 82.2842 58.0674 82.2883 58.0535 82.2883C58.0396 82.2883 58.026 82.2842 58.0144 82.2766C58.0015 82.2666 57.991 82.2537 57.984 82.2389C57.9769 82.2242 57.9733 82.208 57.9736 82.1916ZM58.7352 83.7318C58.8381 83.6704 58.931 83.5936 59.0106 83.504C59.0907 83.4143 59.1593 83.315 59.2146 83.2082C59.2677 83.1056 59.3088 82.9972 59.337 82.8852C59.3633 82.783 59.377 82.6779 59.3778 82.5724V82.501L58.759 83.028C58.6527 83.1113 58.5618 83.2126 58.4904 83.3272C58.4355 83.4199 58.4062 83.5255 58.4054 83.6332C58.4054 83.7318 58.4394 83.7828 58.504 83.793C58.5856 83.798 58.6667 83.7765 58.7352 83.7318Z" fill="#455A64"/>
<path d="M61.7168 79.0602C61.7944 79.0123 61.8794 78.9779 61.9684 78.9582C62.0335 78.945 62.1005 78.945 62.1656 78.9582C62.2166 78.9658 62.2653 78.9844 62.3084 79.0126C62.3436 79.0355 62.3756 79.0629 62.4036 79.0942V77.5982C62.4046 77.5451 62.4174 77.4928 62.441 77.4452C62.4591 77.4019 62.4899 77.3652 62.5294 77.3398L62.8694 77.1392C62.8817 77.1287 62.8974 77.1229 62.9136 77.1229C62.9298 77.1229 62.9455 77.1287 62.9578 77.1392C62.9712 77.1545 62.9814 77.1723 62.9878 77.1915C62.9942 77.2108 62.9967 77.2312 62.9952 77.2514V81.855C62.9942 81.9081 62.9814 81.9604 62.9578 82.008C62.9405 82.0527 62.9096 82.0907 62.8694 82.1168L62.5294 82.3174C62.5168 82.3273 62.5012 82.3327 62.4852 82.3327C62.4692 82.3327 62.4536 82.3273 62.441 82.3174C62.4276 82.3021 62.4174 82.2843 62.411 82.2651C62.4046 82.2458 62.4021 82.2255 62.4036 82.2052V82.042C62.3761 82.1086 62.3443 82.1733 62.3084 82.2358C62.266 82.3116 62.2183 82.3844 62.1656 82.4534C62.1055 82.5319 62.0396 82.6058 61.9684 82.6744C61.8925 82.7469 61.808 82.8097 61.7168 82.8614C61.5958 82.9425 61.4502 82.9786 61.3054 82.9634C61.1808 82.9437 61.0681 82.8782 60.9892 82.7798C60.8919 82.6605 60.8223 82.5212 60.7852 82.3718C60.7321 82.1848 60.7035 81.9916 60.7002 81.7972C60.7002 81.7292 60.7002 81.651 60.7002 81.5558C60.7002 81.4606 60.7002 81.379 60.7002 81.3076C60.7067 81.0787 60.7352 80.851 60.7852 80.6276C60.831 80.4059 60.8994 80.1894 60.9892 79.9816C61.0701 79.7871 61.1764 79.6041 61.3054 79.4376C61.4155 79.2852 61.5554 79.1567 61.7168 79.0602ZM61.2918 81.005C61.285 81.1352 61.285 81.2658 61.2918 81.396C61.3122 81.6918 61.37 81.8754 61.4754 81.9468C61.5329 81.9816 61.5995 81.9986 61.6667 81.9955C61.7339 81.9925 61.7986 81.9696 61.8528 81.9298C62.0172 81.8293 62.1485 81.6827 62.2302 81.5082C62.3365 81.2968 62.3957 81.0647 62.4036 80.8282C62.4036 80.7534 62.4036 80.665 62.4036 80.5562C62.4036 80.4474 62.4036 80.3624 62.4036 80.2944C62.4086 80.208 62.3958 80.1214 62.3659 80.0401C62.3361 79.9588 62.2899 79.8845 62.2302 79.8218C62.1761 79.7802 62.1098 79.7576 62.0415 79.7576C61.9732 79.7576 61.9069 79.7802 61.8528 79.8218C61.6893 79.9218 61.5582 80.0671 61.4754 80.24C61.3598 80.4788 61.2972 80.7398 61.2918 81.005Z" fill="#455A64"/>
<path d="M64.3485 76.279C64.3599 76.268 64.3752 76.2618 64.391 76.2618C64.4069 76.2618 64.4221 76.268 64.4335 76.279C64.4469 76.2943 64.4571 76.3121 64.4635 76.3313C64.4699 76.3506 64.4724 76.371 64.4709 76.3912V76.9386C64.4699 76.9917 64.4571 77.044 64.4335 77.0916C64.4163 77.1344 64.3867 77.1711 64.3485 77.197L63.9541 77.4248C63.9427 77.4358 63.9275 77.442 63.9116 77.442C63.8958 77.442 63.8805 77.4358 63.8691 77.4248C63.8558 77.4095 63.8456 77.3917 63.8391 77.3725C63.8327 77.3532 63.8302 77.3329 63.8317 77.3126V76.7652C63.8328 76.7121 63.8455 76.6598 63.8691 76.6122C63.8851 76.5687 63.915 76.5316 63.9541 76.5068L64.3485 76.279ZM64.4471 81.0152C64.4461 81.0683 64.4333 81.1206 64.4097 81.1682C64.3928 81.2121 64.3632 81.2499 64.3247 81.277L63.9847 81.4742C63.9721 81.4841 63.9566 81.4895 63.9405 81.4895C63.9245 81.4895 63.9089 81.4841 63.8963 81.4742C63.8836 81.4587 63.874 81.4407 63.8682 81.4215C63.8623 81.4022 63.8603 81.382 63.8623 81.362V78.0912C63.8618 78.0372 63.8734 77.9837 63.8963 77.9348C63.9156 77.8922 63.9462 77.8558 63.9847 77.8294L64.3247 77.6288C64.3361 77.6178 64.3514 77.6116 64.3672 77.6116C64.3831 77.6116 64.3983 77.6178 64.4097 77.6288C64.4231 77.6441 64.4333 77.6619 64.4397 77.6811C64.4461 77.7004 64.4487 77.7208 64.4471 77.741V81.0152Z" fill="#455A64"/>
<path d="M67.5274 79.237C67.5282 79.29 67.5165 79.3423 67.4934 79.39C67.4752 79.4332 67.4444 79.4699 67.405 79.4954L67.065 79.696C67.0536 79.707 67.0384 79.7132 67.0225 79.7132C67.0067 79.7132 66.9914 79.707 66.98 79.696C66.9667 79.6807 66.9565 79.6629 66.95 79.6437C66.9436 79.6244 66.9411 79.6041 66.9426 79.5838V77.8022C66.9604 77.5936 66.9167 77.3844 66.8168 77.2004C66.7284 77.0814 66.5992 77.0746 66.4224 77.1766C66.2467 77.2876 66.1127 77.4538 66.0416 77.6492C65.946 77.888 65.8986 78.1434 65.9022 78.4006V80.1856C65.903 80.2386 65.8913 80.2909 65.8682 80.3386C65.85 80.3818 65.8192 80.4185 65.7798 80.444L65.4398 80.6446C65.4284 80.6556 65.4132 80.6618 65.3973 80.6618C65.3815 80.6618 65.3662 80.6556 65.3548 80.6446C65.3413 80.6294 65.331 80.6116 65.3246 80.5924C65.3181 80.5731 65.3157 80.5527 65.3174 80.5324V77.248C65.3185 77.1949 65.3312 77.1426 65.3548 77.095C65.3708 77.0515 65.4007 77.0144 65.4398 76.9896L65.7798 76.789C65.7921 76.7785 65.8078 76.7727 65.824 76.7727C65.8402 76.7727 65.8559 76.7785 65.8682 76.789C65.881 76.8046 65.8906 76.8225 65.8964 76.8417C65.9022 76.861 65.9042 76.8812 65.9022 76.9012V77.061C65.981 76.8988 66.0743 76.744 66.181 76.5986C66.2835 76.4618 66.4117 76.3463 66.5584 76.2586C66.6949 76.1641 66.8584 76.1164 67.0242 76.1226C67.0847 76.1303 67.1429 76.1506 67.195 76.1822C67.2472 76.2139 67.2921 76.2561 67.3268 76.3062C67.4108 76.4368 67.4653 76.5842 67.4866 76.738C67.5209 76.9356 67.5368 77.1359 67.5342 77.3364L67.5274 79.237Z" fill="#455A64"/>
<path d="M69.3975 79.0466C69.4706 79.0044 69.537 78.9517 69.5947 78.8902C69.6644 78.8137 69.7249 78.7292 69.7749 78.6386C69.8347 78.5316 69.8804 78.4173 69.9109 78.2986C69.9457 78.1735 69.9629 78.0442 69.9619 77.9144V77.656C69.9337 77.7211 69.9019 77.7847 69.8667 77.8464C69.8232 77.9226 69.7755 77.9964 69.7239 78.0674C69.6638 78.1448 69.5979 78.2176 69.5267 78.285C69.451 78.3585 69.3665 78.4225 69.2751 78.4754C69.1532 78.554 69.0081 78.5888 68.8637 78.574C68.7392 78.5543 68.6264 78.4888 68.5475 78.3904C68.4503 78.2711 68.3806 78.1318 68.3435 77.9824C68.2907 77.7965 68.2621 77.6045 68.2585 77.4112C68.2585 77.3432 68.2585 77.2616 68.2585 77.1698C68.2585 77.078 68.2585 76.993 68.2585 76.9216C68.2648 76.6927 68.2933 76.465 68.3435 76.2416C68.3884 76.0196 68.4568 75.8031 68.5475 75.5956C68.6284 75.4 68.7347 75.2159 68.8637 75.0482C68.9737 74.8965 69.1137 74.7692 69.2751 74.6742C69.3534 74.6269 69.4381 74.5914 69.5267 74.5688C69.592 74.5572 69.6587 74.5572 69.7239 74.5688C69.7748 74.577 69.8234 74.5955 69.8667 74.6232C69.9027 74.645 69.9349 74.6726 69.9619 74.7048V74.5416C69.963 74.4885 69.9758 74.4362 69.9993 74.3886C70.0166 74.3448 70.0477 74.3079 70.0877 74.2832L70.4277 74.0826C70.4401 74.0721 70.4557 74.0663 70.4719 74.0663C70.4882 74.0663 70.5038 74.0721 70.5161 74.0826C70.5295 74.0979 70.5397 74.1157 70.5461 74.1349C70.5525 74.1542 70.5551 74.1746 70.5535 74.1948V77.52C70.5657 78.0237 70.4597 78.5232 70.2441 78.9786C70.0585 79.3633 69.7626 79.684 69.3941 79.9C69.2629 79.9815 69.1156 80.0337 68.9623 80.053C68.8465 80.0679 68.7287 80.0502 68.6223 80.002C68.5258 79.9503 68.4457 79.8726 68.3911 79.7776C68.3298 79.6685 68.297 79.5457 68.2959 79.4206C68.2931 79.3675 68.3049 79.3146 68.3299 79.2676C68.3472 79.2238 68.3783 79.1869 68.4183 79.1622L68.7277 78.982C68.743 78.9693 68.7623 78.9623 68.7821 78.9623C68.802 78.9623 68.8213 78.9693 68.8365 78.982L68.9147 79.0602C68.9329 79.0881 68.9569 79.1117 68.985 79.1293C69.0132 79.1469 69.0449 79.1581 69.0779 79.1622C69.1941 79.159 69.3062 79.1185 69.3975 79.0466ZM68.8501 76.6394C68.8399 76.7707 68.8399 76.9025 68.8501 77.0338C68.8705 77.3262 68.9283 77.5098 69.0337 77.5846C69.0913 77.6194 69.1578 77.6364 69.225 77.6333C69.2922 77.6303 69.357 77.6074 69.4111 77.5676C69.5742 77.4655 69.705 77.3193 69.7885 77.146C69.8949 76.9346 69.954 76.7025 69.9619 76.466C69.9619 76.3912 69.9619 76.2994 69.9619 76.194C69.9619 76.0886 69.9619 75.9968 69.9619 75.9322C69.967 75.8452 69.9542 75.7581 69.9244 75.6763C69.8946 75.5944 69.8484 75.5195 69.7885 75.4562C69.734 75.4156 69.6678 75.3937 69.5998 75.3937C69.5319 75.3937 69.4657 75.4156 69.4111 75.4562C69.2486 75.5574 69.1178 75.7023 69.0337 75.8744C68.9186 76.1134 68.856 76.3742 68.8501 76.6394Z" fill="#455A64"/>
<path d="M71.9067 75.82C71.9187 75.8103 71.9337 75.8051 71.9492 75.8051C71.9646 75.8051 71.9796 75.8103 71.9917 75.82C72.005 75.8353 72.0152 75.8531 72.0217 75.8723C72.0281 75.8916 72.0306 75.912 72.0291 75.9322V76.6122C72.028 76.6653 72.0153 76.7176 71.9917 76.7652C71.9745 76.808 71.9449 76.8447 71.9067 76.8706L71.4817 77.1154C71.4694 77.1259 71.4537 77.1317 71.4375 77.1317C71.4213 77.1317 71.4056 77.1259 71.3933 77.1154C71.3803 77.0999 71.3707 77.082 71.3648 77.0628C71.359 77.0435 71.3571 77.0232 71.3593 77.0032V76.3232C71.3585 76.2702 71.3702 76.2179 71.3933 76.1702C71.4126 76.1267 71.4431 76.0892 71.4817 76.0614L71.9067 75.82Z" fill="#455A64"/>
<path d="M73.3211 75.0142C73.3334 75.0037 73.3491 74.9979 73.3653 74.9979C73.3815 74.9979 73.3972 75.0037 73.4095 75.0142C73.4234 75.0292 73.4339 75.0469 73.4404 75.0663C73.4468 75.0856 73.4491 75.1061 73.4469 75.1264V75.8064C73.4459 75.8595 73.4331 75.9118 73.4095 75.9594C73.3922 76.0032 73.3612 76.0402 73.3211 76.0648L72.8995 76.3096C72.8872 76.3201 72.8715 76.3259 72.8553 76.3259C72.8391 76.3259 72.8234 76.3201 72.8111 76.3096C72.7983 76.2941 72.7888 76.2761 72.7829 76.2569C72.7771 76.2376 72.7751 76.2174 72.7771 76.1974V75.5174C72.7764 75.4645 72.788 75.4121 72.8111 75.3644C72.8284 75.3206 72.8594 75.2837 72.8995 75.259L73.3211 75.0142Z" fill="#455A64"/>
<path d="M74.7388 74.1948C74.7512 74.1843 74.7668 74.1785 74.783 74.1785C74.7992 74.1785 74.8149 74.1843 74.8272 74.1948C74.8406 74.2101 74.8508 74.2279 74.8572 74.2472C74.8636 74.2664 74.8662 74.2868 74.8646 74.307V74.987C74.8632 75.0412 74.8505 75.0945 74.8272 75.1434C74.8092 75.1867 74.7783 75.2235 74.7388 75.2488L74.3172 75.4936C74.3046 75.5035 74.2891 75.5089 74.273 75.5089C74.257 75.5089 74.2414 75.5035 74.2288 75.4936C74.2161 75.4781 74.2065 75.4601 74.2007 75.4409C74.1948 75.4216 74.1929 75.4014 74.1948 75.3814V74.7014C74.1946 74.6474 74.2063 74.594 74.2288 74.545C74.2469 74.5017 74.2778 74.465 74.3172 74.4396L74.7388 74.1948Z" fill="#455A64"/>
<path opacity="0.3" d="M32.1914 125.004L96.261 88.0124C96.5405 87.8716 96.849 87.7983 97.162 87.7983C97.4749 87.7983 97.7835 87.8716 98.063 88.0124L99.1306 88.5972C99.627 88.8862 99.627 89.352 99.1306 89.6376L35.0474 126.623C34.769 126.765 34.4608 126.839 34.1481 126.839C33.8354 126.839 33.5272 126.765 33.2488 126.623L32.1914 126.041C31.695 125.756 31.695 125.29 32.1914 125.004Z" fill="black"/>
<path opacity="0.3" d="M37.2165 127.993L101.286 91.001C101.534 90.8588 101.812 90.7764 102.098 90.7605C102.384 90.7445 102.669 90.7955 102.932 90.9092L119.609 100.538C120.02 100.776 119.949 101.201 119.452 101.49L55.4575 138.431C55.2082 138.572 54.9297 138.654 54.6437 138.67C54.3577 138.686 54.0718 138.636 53.8084 138.523L37.0601 128.938C36.6487 128.704 36.7201 128.279 37.2165 127.993Z" fill="#263238"/>
<path d="M92.735 106.539L94.741 105.38C94.826 105.329 94.8328 105.254 94.758 105.21L92.837 104.101C92.7918 104.08 92.7424 104.069 92.6925 104.069C92.6425 104.069 92.5932 104.08 92.548 104.101L90.542 105.261C90.4536 105.312 90.4468 105.386 90.525 105.431L92.4426 106.536C92.488 106.558 92.5378 106.57 92.5884 106.57C92.639 106.571 92.6891 106.56 92.735 106.539ZM89.8042 102.53L87.7982 103.686C87.7132 103.737 87.7064 103.812 87.7812 103.856L89.7022 104.965C89.7474 104.986 89.7967 104.997 89.8467 104.997C89.8966 104.997 89.946 104.986 89.9912 104.965L91.9972 103.805C92.0822 103.758 92.0924 103.683 92.0142 103.639L90.1 102.52C90.0535 102.498 90.0023 102.487 89.9508 102.489C89.8993 102.491 89.849 102.505 89.8042 102.53ZM83.3238 106.27L79.9238 108.232C79.8354 108.28 79.8286 108.358 79.9034 108.399L81.8244 109.507C81.8696 109.53 81.9197 109.543 81.9706 109.543C82.0214 109.543 82.0716 109.53 82.1168 109.507L85.5168 107.549C85.6018 107.498 85.6086 107.423 85.5168 107.379L83.5992 106.27C83.5558 106.251 83.5089 106.241 83.4615 106.241C83.4141 106.241 83.3671 106.251 83.3238 106.27ZM86.8734 104.23L84.8674 105.386C84.7824 105.437 84.7756 105.512 84.8504 105.556L86.768 106.665C86.8137 106.687 86.8636 106.698 86.9142 106.698C86.9648 106.698 87.0147 106.687 87.0604 106.665L89.0664 105.505C89.1514 105.458 89.1582 105.383 89.0834 105.339L87.1658 104.23C87.1211 104.206 87.0713 104.193 87.0204 104.192C86.9696 104.19 86.9191 104.201 86.8734 104.224V104.23ZM79.0024 108.766L76.9964 109.925C76.9114 109.973 76.9046 110.048 76.9794 110.092L78.9004 111.2C78.945 111.224 78.9946 111.236 79.0449 111.236C79.0952 111.236 79.1448 111.224 79.1894 111.2L81.1954 110.044C81.2804 109.993 81.2906 109.919 81.2124 109.874L79.2948 108.766C79.2491 108.744 79.1992 108.733 79.1486 108.733C79.098 108.733 79.0481 108.744 79.0024 108.766ZM76.0716 110.466L74.0656 111.625C73.9806 111.673 73.9738 111.748 74.0486 111.792L75.9662 112.9C76.0114 112.924 76.0615 112.936 76.1124 112.936C76.1632 112.936 76.2134 112.924 76.2586 112.9L78.2646 111.741C78.3496 111.693 78.3564 111.619 78.2816 111.574L76.364 110.466C76.3193 110.442 76.2695 110.428 76.2186 110.427C76.1678 110.426 76.1173 110.437 76.0716 110.459V110.466ZM83.5924 114.988L85.5984 113.829C85.6834 113.781 85.6936 113.703 85.6154 113.662L83.6978 112.54C83.6526 112.517 83.6024 112.505 83.5516 112.505C83.5007 112.505 83.4506 112.517 83.4054 112.54L81.3994 113.696C81.3144 113.747 81.3076 113.822 81.3994 113.866L83.3204 114.974C83.3628 114.994 83.4089 115.005 83.4557 115.006C83.5025 115.007 83.549 114.999 83.5924 114.981V114.988ZM80.6616 116.688L82.6676 115.529C82.7526 115.478 82.7594 115.403 82.6846 115.359L80.767 114.24C80.7213 114.218 80.6714 114.207 80.6208 114.207C80.5702 114.207 80.5203 114.218 80.4746 114.24L78.4686 115.399C78.3836 115.45 78.3768 115.525 78.4686 115.569L80.3862 116.678C80.4298 116.696 80.4768 116.706 80.5242 116.705C80.5717 116.705 80.6185 116.694 80.6616 116.674V116.688ZM77.7308 118.388L79.7368 117.229C79.8218 117.178 79.8286 117.103 79.7368 117.059L77.8328 115.94C77.7876 115.919 77.7382 115.908 77.6883 115.908C77.6383 115.908 77.589 115.919 77.5438 115.94L75.5378 117.099C75.4494 117.15 75.4426 117.225 75.5378 117.266L77.4554 118.374C77.4992 118.393 77.5464 118.401 77.5938 118.4C77.6412 118.399 77.6879 118.388 77.7308 118.368V118.388ZM74.7966 120.088L76.8026 118.932C76.8876 118.881 76.8978 118.806 76.8196 118.762L74.902 117.64C74.8563 117.618 74.8064 117.607 74.7558 117.607C74.7052 117.607 74.6553 117.618 74.6096 117.64L72.6036 118.799C72.5186 118.847 72.5118 118.925 72.6036 118.966L74.5246 120.074C74.5687 120.093 74.6165 120.101 74.6643 120.098C74.712 120.095 74.7584 120.081 74.8 120.057L74.7966 120.088ZM89.8008 108.259L91.8068 107.103C91.8918 107.052 91.902 106.978 91.8238 106.933L89.9062 105.825C89.8605 105.803 89.8106 105.792 89.76 105.792C89.7094 105.792 89.6595 105.803 89.6138 105.825L87.6078 106.984C87.5228 107.032 87.516 107.11 87.5908 107.151L89.5118 108.259C89.5588 108.278 89.6097 108.285 89.6601 108.28C89.7104 108.274 89.7587 108.257 89.8008 108.229V108.259ZM86.5266 113.319L91.001 110.735C91.086 110.684 91.0928 110.609 91.018 110.565L86.36 107.845C86.3143 107.823 86.2644 107.812 86.2138 107.812C86.1632 107.812 86.1133 107.823 86.0676 107.845L83.7556 109.181C83.6706 109.232 83.6604 109.307 83.7386 109.351L86.2036 110.775C86.2818 110.816 86.2716 110.894 86.1866 110.942L84.32 112.02C84.235 112.071 84.2248 112.146 84.32 112.19L86.2376 113.298C86.2835 113.318 86.3333 113.327 86.3832 113.325C86.4332 113.324 86.4821 113.311 86.5266 113.288V113.319ZM73.1408 112.183L71.1348 113.339C71.0464 113.39 71.0396 113.465 71.1144 113.509L73.0354 114.617C73.0811 114.639 73.131 114.65 73.1816 114.65C73.2322 114.65 73.2821 114.639 73.3278 114.617L75.3338 113.458C75.4188 113.41 75.4256 113.336 75.3508 113.291L73.44 112.142C73.3932 112.119 73.3414 112.107 73.2891 112.109C73.2368 112.111 73.1858 112.126 73.1408 112.152V112.183ZM70.2066 113.883L68.2006 115.039C68.1156 115.09 68.1088 115.165 68.1836 115.209L70.1046 116.317C70.1498 116.339 70.1991 116.35 70.2491 116.35C70.299 116.35 70.3484 116.339 70.3936 116.317L72.3996 115.158C72.4846 115.11 72.4948 115.032 72.4166 114.991L70.499 113.883C70.4568 113.854 70.4082 113.835 70.3574 113.829C70.3065 113.822 70.2547 113.828 70.2066 113.846V113.883ZM53.9818 131.92C54.027 131.943 54.0771 131.955 54.128 131.955C54.1788 131.955 54.229 131.943 54.2742 131.92L56.2802 130.764C56.3652 130.713 56.372 130.638 56.2972 130.594L54.3796 129.486C54.3339 129.464 54.284 129.453 54.2334 129.453C54.1828 129.453 54.1329 129.464 54.0872 129.486L52.0812 130.645C51.9962 130.693 51.9894 130.771 52.0642 130.812L53.9818 131.92ZM46.7534 127.391L44.7474 128.547C44.659 128.598 44.6522 128.673 44.7304 128.717L46.648 129.826C46.6936 129.847 46.7436 129.859 46.7942 129.859C46.8448 129.859 46.8947 129.847 46.9404 129.826L48.9464 128.666C49.0314 128.619 49.0382 128.54 48.9464 128.5L47.0254 127.391C46.9832 127.37 46.9369 127.359 46.8898 127.358C46.8427 127.358 46.796 127.368 46.7534 127.388V127.391ZM50.4696 130.791C50.5153 130.813 50.5652 130.824 50.6158 130.824C50.6664 130.824 50.7163 130.813 50.762 130.791L52.768 129.632C52.853 129.584 52.8598 129.509 52.785 129.465L50.864 128.357C50.8194 128.334 50.7698 128.321 50.7195 128.321C50.6692 128.321 50.6196 128.334 50.575 128.357L48.569 129.513C48.484 129.564 48.4738 129.639 48.569 129.683L50.4696 130.791ZM58.5582 132.6L60.5642 131.441C60.6492 131.393 60.6594 131.318 60.5812 131.274L58.6636 130.166C58.6184 130.142 58.5682 130.13 58.5174 130.13C58.4665 130.13 58.4164 130.142 58.3712 130.166L56.3652 131.322C56.2802 131.373 56.2734 131.447 56.3482 131.492L58.2692 132.6C58.3144 132.621 58.3637 132.632 58.4137 132.632C58.4636 132.632 58.513 132.621 58.5582 132.6ZM55.335 134.3C55.3807 134.322 55.4306 134.333 55.4812 134.333C55.5318 134.333 55.5817 134.322 55.6274 134.3L57.6334 133.141C57.7184 133.093 57.7252 133.018 57.6504 132.974L55.7328 131.866C55.6876 131.842 55.6374 131.83 55.5866 131.83C55.5357 131.83 55.4856 131.842 55.4404 131.866L53.4344 133.022C53.3494 133.073 53.3426 133.147 53.4344 133.192L55.335 134.3ZM49.6842 125.691L47.6782 126.847C47.5932 126.898 47.5864 126.973 47.6782 127.017L49.5958 128.126C49.6414 128.147 49.6914 128.159 49.742 128.159C49.7926 128.159 49.8425 128.147 49.8882 128.126L51.8942 126.966C51.9792 126.919 51.986 126.844 51.8942 126.8L49.98 125.684C49.9335 125.662 49.8823 125.651 49.8308 125.653C49.7793 125.655 49.729 125.669 49.6842 125.695V125.691ZM64.345 117.225L62.339 118.385C62.2506 118.436 62.2438 118.51 62.3186 118.555L64.2396 119.66C64.2853 119.681 64.3352 119.693 64.3858 119.693C64.4364 119.693 64.4863 119.681 64.532 119.66L66.538 118.5C66.623 118.449 66.6298 118.374 66.555 118.33L64.634 117.225C64.5889 117.203 64.5393 117.192 64.4891 117.192C64.4389 117.193 64.3895 117.205 64.345 117.229V117.225ZM52.615 123.998L50.609 125.157C50.524 125.205 50.5172 125.28 50.609 125.324L52.53 126.432C52.5752 126.454 52.6245 126.465 52.6745 126.465C52.7244 126.465 52.7738 126.454 52.819 126.432L54.825 125.273C54.91 125.225 54.9202 125.151 54.842 125.106L52.9244 123.998C52.8767 123.972 52.8234 123.959 52.7692 123.96C52.7151 123.96 52.662 123.975 52.615 124.001V123.998ZM67.2758 115.535L65.2698 116.691C65.1848 116.742 65.178 116.817 65.2528 116.861L67.1704 117.97C67.2161 117.992 67.266 118.003 67.3166 118.003C67.3672 118.003 67.4171 117.992 67.4628 117.97L69.4688 116.81C69.5538 116.763 69.5606 116.685 69.4858 116.644L67.5682 115.535C67.5227 115.513 67.4724 115.501 67.4216 115.502C67.3707 115.502 67.3207 115.515 67.2758 115.539V115.535ZM61.4108 118.918L59.4048 120.078C59.3198 120.125 59.313 120.204 59.3878 120.244L61.3088 121.353C61.3534 121.376 61.403 121.388 61.4533 121.388C61.5036 121.388 61.5532 121.376 61.5978 121.353L63.6038 120.197C63.6888 120.146 63.699 120.071 63.6208 120.027L61.7032 118.918C61.6573 118.897 61.6072 118.886 61.5566 118.887C61.506 118.888 61.4562 118.9 61.4108 118.922V118.918ZM58.48 120.618L56.474 121.778C56.389 121.825 56.3822 121.9 56.474 121.944L58.3916 123.053C58.4368 123.076 58.4869 123.088 58.5378 123.088C58.5886 123.088 58.6388 123.076 58.684 123.053L60.69 121.897C60.775 121.846 60.7818 121.771 60.707 121.727L58.7894 120.618C58.7418 120.593 58.6889 120.58 58.6351 120.579C58.5813 120.579 58.5281 120.591 58.48 120.615V120.618ZM55.5492 122.318L53.5432 123.478C53.4548 123.525 53.448 123.6 53.5228 123.644L55.4438 124.753C55.489 124.776 55.5391 124.788 55.59 124.788C55.6408 124.788 55.691 124.776 55.7362 124.753L57.7422 123.593C57.8272 123.546 57.834 123.471 57.7422 123.427L55.8212 122.318C55.779 122.298 55.7331 122.287 55.6862 122.285C55.6394 122.283 55.5928 122.291 55.5492 122.308V122.318ZM68.935 123.454L70.941 122.295C71.026 122.247 71.0328 122.172 70.941 122.128L69.02 121.02C68.9748 120.998 68.9254 120.987 68.8755 120.987C68.8255 120.987 68.7762 120.998 68.731 121.02L66.725 122.179C66.6366 122.227 66.6298 122.301 66.708 122.346L68.6256 123.454C68.6738 123.479 68.7275 123.491 68.7816 123.489C68.8357 123.487 68.8885 123.472 68.935 123.444V123.454ZM96.2846 98.7972L94.2786 99.9566C94.1936 100.004 94.1868 100.082 94.2616 100.123L96.1826 101.232C96.2278 101.255 96.2779 101.267 96.3288 101.267C96.3796 101.267 96.4298 101.255 96.475 101.232L98.481 100.076C98.566 100.025 98.5728 99.9498 98.498 99.9056L96.577 98.7972C96.5321 98.7738 96.4825 98.7608 96.4319 98.759C96.3813 98.7573 96.331 98.7668 96.2846 98.787V98.7972ZM92.7384 100.837L90.7324 101.997C90.644 102.044 90.6372 102.119 90.712 102.163L92.633 103.272C92.6782 103.295 92.7283 103.307 92.7792 103.307C92.83 103.307 92.8802 103.295 92.9254 103.272L94.9314 102.112C95.0164 102.065 95.0232 101.99 94.9484 101.946L93.0274 100.837C92.9822 100.816 92.9328 100.805 92.8829 100.805C92.8329 100.805 92.7836 100.816 92.7384 100.837ZM99.2188 97.0972L97.2128 98.2566C97.1278 98.3076 97.1176 98.3824 97.1958 98.4266L99.1134 99.5316C99.1591 99.5534 99.209 99.5646 99.2596 99.5646C99.3102 99.5646 99.3601 99.5534 99.4058 99.5316L101.412 98.3722C101.497 98.3212 101.504 98.2464 101.429 98.2022L99.5078 97.0938C99.4626 97.0726 99.4132 97.0616 99.3633 97.0616C99.3133 97.0616 99.264 97.0726 99.2188 97.0938V97.0972ZM83.011 112.152L85.017 110.996C85.102 110.945 85.1122 110.871 85.017 110.826L83.0994 109.718C83.0537 109.696 83.0038 109.685 82.9532 109.685C82.9026 109.685 82.8527 109.696 82.807 109.718L80.801 110.877C80.716 110.925 80.7092 111 80.801 111.044L82.722 112.152C82.7669 112.175 82.8166 112.187 82.8669 112.186C82.9172 112.185 82.9666 112.173 83.011 112.149V112.152ZM102.442 95.3972C102.397 95.3739 102.347 95.3618 102.296 95.3618C102.245 95.3618 102.195 95.3739 102.15 95.3972L100.144 96.5532C100.059 96.6042 100.052 96.679 100.127 96.7232L102.044 97.8316C102.09 97.8534 102.14 97.8646 102.19 97.8646C102.241 97.8646 102.291 97.8534 102.337 97.8316L104.343 96.6722C104.428 96.6246 104.438 96.5464 104.36 96.5056L102.442 95.3972ZM71.8658 121.754L73.8718 120.598C73.9568 120.547 73.9636 120.472 73.8718 120.428L71.9542 119.32C71.9085 119.298 71.8586 119.287 71.808 119.287C71.7574 119.287 71.7075 119.298 71.6618 119.32L69.6558 120.479C69.5708 120.527 69.564 120.601 69.6558 120.646L71.5734 121.754C71.6189 121.777 71.6691 121.788 71.72 121.788C71.7709 121.787 71.8208 121.774 71.8658 121.751V121.754ZM107.821 101.014L109.827 99.8546C109.912 99.807 109.919 99.7288 109.844 99.688L107.926 98.5796C107.881 98.5563 107.831 98.5442 107.78 98.5442C107.729 98.5442 107.679 98.5563 107.634 98.5796L105.628 99.7356C105.543 99.7866 105.533 99.8614 105.611 99.9056L107.528 101.014C107.577 101.031 107.628 101.036 107.678 101.03C107.729 101.024 107.778 101.007 107.821 100.98V101.014ZM102.146 101.123L104.152 99.9634C104.237 99.9158 104.247 99.841 104.169 99.7968L102.252 98.6884C102.206 98.6667 102.156 98.6554 102.105 98.6554C102.055 98.6554 102.005 98.6667 101.959 98.6884L99.9532 99.8478C99.8682 99.8954 99.8614 99.9702 99.9362 100.014L101.857 101.123C101.903 101.143 101.954 101.152 102.004 101.148C102.055 101.145 102.103 101.129 102.146 101.102V101.123ZM105.182 96.9952C105.137 96.9735 105.087 96.9622 105.036 96.9622C104.986 96.9622 104.936 96.9735 104.89 96.9952L102.884 98.1546C102.799 98.2022 102.792 98.277 102.867 98.3212L104.788 99.4296C104.833 99.4529 104.883 99.465 104.934 99.465C104.985 99.465 105.035 99.4529 105.08 99.4296L107.1 98.26C107.185 98.209 107.192 98.1342 107.117 98.09L105.182 96.9952ZM105.801 96.6382L110.463 99.331C110.508 99.3522 110.557 99.3632 110.607 99.3632C110.657 99.3632 110.706 99.3522 110.752 99.331L112.758 98.1716C112.843 98.124 112.853 98.0492 112.775 98.005L108.12 95.2816C108.075 95.2604 108.025 95.2494 107.975 95.2494C107.926 95.2494 107.876 95.2604 107.831 95.2816L105.825 96.441C105.74 96.4988 105.74 96.577 105.801 96.6178V96.6382ZM99.0284 100.378L97.0224 101.538C96.9374 101.585 96.9272 101.66 97.0054 101.704L98.923 102.813C98.9687 102.834 99.0186 102.846 99.0692 102.846C99.1198 102.846 99.1697 102.834 99.2154 102.813L101.221 101.653C101.306 101.606 101.313 101.531 101.238 101.487L99.3208 100.378C99.2761 100.354 99.2263 100.341 99.1754 100.339C99.1245 100.338 99.0741 100.349 99.0284 100.371V100.378ZM76.9624 113.118L74.9564 114.277C74.8714 114.325 74.8612 114.4 74.9394 114.444L76.857 115.552C76.9022 115.576 76.9523 115.588 77.0032 115.588C77.054 115.588 77.1042 115.576 77.1494 115.552L79.1554 114.393C79.2404 114.345 79.2472 114.271 79.1724 114.226L77.2514 113.118C77.2073 113.094 77.158 113.08 77.1077 113.079C77.0574 113.078 77.0075 113.089 76.9624 113.111V113.118ZM104.598 102.704C104.643 102.726 104.693 102.737 104.744 102.737C104.794 102.737 104.844 102.726 104.89 102.704L106.896 101.544C106.981 101.497 106.988 101.419 106.913 101.378L104.992 100.269C104.947 100.246 104.898 100.234 104.847 100.234C104.797 100.234 104.748 100.246 104.703 100.269L102.697 101.425C102.609 101.476 102.602 101.551 102.677 101.595L104.598 102.704ZM79.9 111.418L77.894 112.577C77.809 112.625 77.8022 112.7 77.877 112.744L79.7946 113.852C79.8398 113.876 79.8899 113.888 79.9408 113.888C79.9916 113.888 80.0418 113.876 80.087 113.852L82.093 112.696C82.178 112.645 82.1848 112.571 82.093 112.526L80.1754 111.418C80.132 111.399 80.0851 111.389 80.0377 111.389C79.9903 111.389 79.9433 111.399 79.9 111.418ZM56.916 130.22C56.9608 130.243 57.0103 130.255 57.0605 130.255C57.1107 130.255 57.1602 130.243 57.205 130.22L59.211 129.061C59.296 129.01 59.3062 128.935 59.211 128.891L57.2934 127.786C57.2477 127.764 57.1978 127.753 57.1472 127.753C57.0966 127.753 57.0466 127.764 57.001 127.786L54.995 128.945C54.91 128.996 54.9032 129.071 54.978 129.115L56.916 130.22ZM53.516 126.65L51.51 127.809C51.425 127.857 51.4182 127.932 51.493 127.976L53.4106 129.084C53.4563 129.106 53.5062 129.117 53.5568 129.117C53.6074 129.117 53.6573 129.106 53.703 129.084L55.709 127.925C55.794 127.877 55.8008 127.803 55.726 127.758L53.8084 126.65C53.7616 126.626 53.7095 126.613 53.6567 126.614C53.6038 126.614 53.552 126.628 53.5058 126.653L53.516 126.65ZM60.1494 128.52L62.1554 127.361C62.2404 127.313 62.2472 127.235 62.1724 127.194L60.2514 126.086C60.2068 126.062 60.1572 126.05 60.1069 126.05C60.0566 126.05 60.007 126.062 59.9624 126.086L57.9564 127.242C57.8714 127.293 57.8612 127.367 57.9394 127.412L59.84 128.52C59.8866 128.543 59.9377 128.555 59.9896 128.555C60.0414 128.555 60.0926 128.543 60.1392 128.52H60.1494ZM63.0802 126.82L65.0862 125.661C65.1712 125.613 65.178 125.538 65.0862 125.494L63.1686 124.386C63.1234 124.362 63.0732 124.35 63.0224 124.35C62.9715 124.35 62.9214 124.362 62.8762 124.386L60.8702 125.542C60.7852 125.593 60.7784 125.667 60.8532 125.712L62.7708 126.82C62.8174 126.843 62.8685 126.855 62.9204 126.855C62.9722 126.855 63.0234 126.843 63.07 126.82H63.0802ZM66.011 125.12L68.017 123.961C68.102 123.913 68.1122 123.838 68.017 123.794L66.0994 122.686C66.0542 122.662 66.004 122.65 65.9532 122.65C65.9023 122.65 65.8522 122.662 65.807 122.686L63.801 123.842C63.716 123.893 63.7092 123.967 63.801 124.012L65.722 125.12C65.7646 125.142 65.8115 125.156 65.8596 125.158C65.9076 125.161 65.9558 125.154 66.0008 125.137L66.011 125.12ZM56.44 124.96L54.434 126.12C54.349 126.167 54.3422 126.242 54.417 126.286L56.338 127.395C56.3826 127.418 56.4322 127.43 56.4825 127.43C56.5328 127.43 56.5824 127.418 56.627 127.395L58.633 126.235C58.718 126.188 58.7282 126.113 58.65 126.069L56.7324 124.96C56.6867 124.938 56.6368 124.927 56.5862 124.927C56.5356 124.927 56.4857 124.938 56.44 124.96ZM59.3742 123.26L57.3682 124.42C57.2832 124.467 57.273 124.542 57.3512 124.586L59.2688 125.695C59.314 125.718 59.3641 125.73 59.415 125.73C59.4658 125.73 59.516 125.718 59.5612 125.695L61.5672 124.539C61.6522 124.488 61.659 124.413 61.5842 124.369L59.6632 123.26C59.617 123.24 59.5668 123.229 59.5162 123.231C59.4656 123.232 59.4159 123.244 59.3708 123.267L59.3742 123.26ZM71.1008 116.491L69.0948 117.647C69.0098 117.698 69.003 117.773 69.0778 117.817L70.9954 118.925C71.041 118.947 71.091 118.958 71.1416 118.958C71.1922 118.958 71.2421 118.947 71.2878 118.925L73.2938 117.766C73.3788 117.718 73.3856 117.64 73.3108 117.599L71.4 116.487C71.3526 116.464 71.3002 116.453 71.2474 116.454C71.1946 116.456 71.143 116.471 71.0974 116.498L71.1008 116.491ZM68.17 118.191L66.164 119.347C66.079 119.398 66.0688 119.473 66.147 119.517L68.0646 120.625C68.1103 120.647 68.1602 120.658 68.2108 120.658C68.2614 120.658 68.3113 120.647 68.357 120.625L70.363 119.466C70.448 119.418 70.4548 119.34 70.38 119.299L68.459 118.191C68.4139 118.167 68.3637 118.155 68.3128 118.155C68.2618 118.155 68.2116 118.167 68.1666 118.191H68.17ZM74.0316 114.791L72.0256 115.947C71.9406 115.998 71.9338 116.073 72.0086 116.117L73.9296 117.225C73.9748 117.246 74.0241 117.257 74.0741 117.257C74.124 117.257 74.1734 117.246 74.2186 117.225L76.2246 116.066C76.3096 116.018 76.3198 115.943 76.2246 115.899L74.307 114.791C74.2625 114.772 74.2143 114.763 74.166 114.766C74.1177 114.768 74.0706 114.781 74.0282 114.804L74.0316 114.791ZM62.305 121.56L60.299 122.72C60.214 122.767 60.2072 122.845 60.282 122.886L62.1996 123.995C62.2448 124.018 62.2949 124.03 62.3458 124.03C62.3966 124.03 62.4468 124.018 62.492 123.995L64.498 122.839C64.583 122.788 64.5898 122.713 64.515 122.669L62.5974 121.56C62.5502 121.54 62.4991 121.531 62.4479 121.533C62.3967 121.535 62.3467 121.549 62.3016 121.574L62.305 121.56ZM65.2358 119.86L63.24 121.04C63.155 121.091 63.1482 121.166 63.223 121.21L65.144 122.315C65.1888 122.338 65.2383 122.35 65.2885 122.35C65.3387 122.35 65.3882 122.338 65.433 122.315L67.439 121.156C67.524 121.105 67.5342 121.03 67.456 120.986L65.5384 119.881C65.4909 119.857 65.4385 119.844 65.3854 119.844C65.3322 119.844 65.2798 119.857 65.2324 119.881L65.2358 119.86ZM61.4958 130.886L63.5018 129.727C63.5868 129.679 63.5936 129.605 63.5188 129.56L61.5978 128.452C61.5532 128.429 61.5036 128.417 61.4533 128.417C61.403 128.417 61.3534 128.429 61.3088 128.452L59.3028 129.611C59.2144 129.659 59.2076 129.734 59.2824 129.778L61.2034 130.886C61.2471 130.911 61.296 130.925 61.3463 130.928C61.3965 130.93 61.4465 130.921 61.4924 130.9L61.4958 130.886ZM46.0326 130.155L44.115 129.05C44.0693 129.029 44.0194 129.017 43.9688 129.017C43.9182 129.017 43.8683 129.029 43.8226 129.05L41.8166 130.21C41.7316 130.261 41.7248 130.336 41.8166 130.38L43.7376 131.488C43.7828 131.509 43.8321 131.52 43.8821 131.52C43.932 131.52 43.9814 131.509 44.0266 131.488L46.0326 130.329C46.0972 130.295 46.1074 130.22 46.0292 130.176L46.0326 130.155ZM49.8542 131.118L47.94 130.03C47.8948 130.006 47.8446 129.994 47.7938 129.994C47.7429 129.994 47.6928 130.006 47.6476 130.03L44.5638 131.811C44.4788 131.859 44.4686 131.934 44.5468 131.978L46.4644 133.086C46.5096 133.109 46.5597 133.122 46.6106 133.122C46.6614 133.122 46.7116 133.109 46.7568 133.086L49.8406 131.305C49.9188 131.257 49.929 131.179 49.8508 131.138L49.8542 131.118ZM43.18 127.99L41.259 126.881C41.2144 126.858 41.1648 126.846 41.1145 126.846C41.0642 126.846 41.0146 126.858 40.97 126.881L38.5016 128.306C38.4166 128.357 38.4064 128.432 38.4812 128.476L40.4022 129.581C40.4479 129.603 40.4978 129.614 40.5484 129.614C40.599 129.614 40.6489 129.603 40.6946 129.581L43.163 128.153C43.2344 128.109 43.2412 128.034 43.18 127.99ZM45.0738 126.895C45.1184 126.918 45.168 126.93 45.2183 126.93C45.2686 126.93 45.3182 126.918 45.3628 126.895L47.3688 125.739C47.4538 125.688 47.464 125.613 47.3858 125.569L45.4546 124.44C45.4089 124.418 45.359 124.407 45.3084 124.407C45.2578 124.407 45.2079 124.418 45.1622 124.44L43.1562 125.599C43.0712 125.647 43.0644 125.725 43.1392 125.766L45.0738 126.895ZM53.38 132.26L51.459 131.152C51.4138 131.13 51.3644 131.119 51.3145 131.119C51.2645 131.119 51.2152 131.13 51.17 131.152L47.311 133.379C47.226 133.43 47.2192 133.504 47.294 133.549L49.2116 134.657C49.2573 134.679 49.3072 134.69 49.3578 134.69C49.4084 134.69 49.4583 134.679 49.504 134.657L53.363 132.43C53.4344 132.393 53.4412 132.318 53.38 132.26ZM54.74 134.64L52.819 133.532C52.7744 133.508 52.7248 133.496 52.6745 133.496C52.6242 133.496 52.5746 133.508 52.53 133.532L50.0378 134.98C49.9528 135.028 49.946 135.102 50.0378 135.147L51.9588 136.255C52.0034 136.278 52.053 136.29 52.1033 136.29C52.1536 136.29 52.2032 136.278 52.2478 136.255L54.7196 134.83C54.7876 134.779 54.7944 134.701 54.7196 134.66L54.74 134.64ZM66.878 114.291C66.9237 114.313 66.9736 114.324 67.0242 114.324C67.0748 114.324 67.1247 114.313 67.1704 114.291L69.1764 113.132C69.2614 113.084 69.2682 113.009 69.1764 112.965L67.252 111.86C67.2074 111.837 67.1578 111.825 67.1075 111.825C67.0572 111.825 67.0076 111.837 66.963 111.86L64.957 113.016C64.872 113.067 64.8618 113.142 64.94 113.186L66.878 114.291ZM61.013 117.691C61.0587 117.713 61.1086 117.724 61.1592 117.724C61.2098 117.724 61.2597 117.713 61.3054 117.691L63.3114 116.532C63.3964 116.481 63.4066 116.406 63.3114 116.362L61.3904 115.26C61.3447 115.238 61.2948 115.227 61.2442 115.227C61.1936 115.227 61.1437 115.238 61.098 115.26L59.092 116.419C59.007 116.47 59.0002 116.545 59.075 116.589L61.013 117.691ZM48.0114 125.198C48.0571 125.22 48.107 125.231 48.1576 125.231C48.2082 125.231 48.2581 125.22 48.3038 125.198L50.3098 124.039C50.3948 123.988 50.4016 123.913 50.3268 123.869L48.4058 122.764C48.3612 122.741 48.3116 122.728 48.2613 122.728C48.211 122.728 48.1614 122.741 48.1168 122.764L46.1108 123.92C46.0258 123.971 46.0156 124.046 46.0904 124.09L48.0114 125.198ZM63.92 116.005C63.9657 116.026 64.0156 116.038 64.0662 116.038C64.1168 116.038 64.1667 116.026 64.2124 116.005L66.2184 114.845C66.3034 114.798 66.3102 114.719 66.2354 114.679L64.3212 113.56C64.276 113.537 64.2258 113.525 64.175 113.525C64.1241 113.525 64.074 113.537 64.0288 113.56L62.0228 114.716C61.9378 114.767 61.931 114.842 62.0228 114.886L63.92 116.005ZM58.055 119.388C58.1002 119.411 58.1503 119.423 58.2012 119.423C58.252 119.423 58.3022 119.411 58.3474 119.388L60.3534 118.232C60.4384 118.181 60.4452 118.106 60.3704 118.062L58.4562 116.96C58.411 116.939 58.3616 116.928 58.3117 116.928C58.2617 116.928 58.2124 116.939 58.1672 116.96L56.1612 118.119C56.0762 118.167 56.066 118.245 56.1442 118.286L58.055 119.388ZM56.151 134.776C56.1053 134.754 56.0554 134.743 56.0048 134.743C55.9542 134.743 55.9042 134.754 55.8586 134.776L52.7748 136.558C52.6898 136.609 52.6796 136.683 52.7578 136.728L54.6754 137.836C54.7211 137.858 54.771 137.869 54.8216 137.869C54.8722 137.869 54.9221 137.858 54.9678 137.836L58.055 136.054C58.14 136.003 58.1468 135.929 58.055 135.884L56.151 134.776ZM53.8492 121.819C53.8944 121.84 53.9437 121.851 53.9937 121.851C54.0436 121.851 54.093 121.84 54.1382 121.819L56.1442 120.659C56.2292 120.612 56.2394 120.537 56.1442 120.493L54.2266 119.384C54.1814 119.361 54.1312 119.349 54.0804 119.349C54.0295 119.349 53.9794 119.361 53.9342 119.384L51.9282 120.54C51.8432 120.591 51.8364 120.666 51.9112 120.71L53.8492 121.819ZM50.915 123.519C50.9607 123.54 51.0106 123.552 51.0612 123.552C51.1118 123.552 51.1617 123.54 51.2074 123.519L53.2134 122.359C53.2984 122.312 53.3052 122.233 53.2304 122.193L51.3128 121.084C51.2676 121.061 51.2174 121.049 51.1666 121.049C51.1157 121.049 51.0656 121.061 51.0204 121.084L49.0144 122.24C48.9294 122.291 48.9226 122.366 48.9974 122.41L50.915 123.519ZM110.469 103.425C110.424 103.401 110.374 103.389 110.323 103.389C110.272 103.389 110.222 103.401 110.177 103.425L105.24 106.274C105.155 106.325 105.148 106.4 105.223 106.444L107.141 107.552C107.186 107.574 107.236 107.585 107.287 107.585C107.338 107.585 107.388 107.574 107.433 107.552L112.37 104.7C112.455 104.652 112.465 104.577 112.387 104.533L110.469 103.425ZM103.989 107.165C103.943 107.143 103.893 107.132 103.843 107.132C103.792 107.132 103.742 107.143 103.697 107.165L101.691 108.324C101.606 108.372 101.599 108.45 101.674 108.491L103.591 109.599C103.636 109.622 103.687 109.634 103.737 109.634C103.788 109.634 103.838 109.622 103.884 109.599L105.89 108.443C105.975 108.392 105.981 108.317 105.907 108.273L103.989 107.165ZM64.4232 129.2L66.4292 128.044C66.5142 127.993 66.521 127.918 66.4462 127.874L64.5286 126.766C64.4829 126.744 64.433 126.733 64.3824 126.733C64.3318 126.733 64.2818 126.744 64.2362 126.766L62.2302 127.925C62.1452 127.973 62.1384 128.047 62.2132 128.092L64.1308 129.2C64.176 129.223 64.2261 129.235 64.277 129.235C64.3278 129.235 64.378 129.223 64.4232 129.2ZM98.1308 110.531C98.0851 110.509 98.0352 110.498 97.9846 110.498C97.934 110.498 97.8841 110.509 97.8384 110.531L95.8324 111.69C95.7474 111.738 95.7406 111.812 95.8154 111.857L97.7364 112.965C97.781 112.988 97.8306 113 97.8809 113C97.9312 113 97.9808 112.988 98.0254 112.965L100.031 111.806C100.12 111.758 100.127 111.683 100.052 111.639L98.1308 110.531ZM113.407 101.711C113.362 101.688 113.313 101.676 113.262 101.676C113.212 101.676 113.163 101.688 113.118 101.711L111.112 102.867C111.027 102.918 111.017 102.993 111.095 103.037L113.013 104.145C113.058 104.167 113.108 104.178 113.159 104.178C113.209 104.178 113.259 104.167 113.305 104.145L115.311 102.986C115.396 102.938 115.403 102.864 115.328 102.819L113.407 101.711ZM118.259 101.126L113.597 98.4334C113.552 98.4122 113.503 98.4012 113.453 98.4012C113.403 98.4012 113.354 98.4122 113.308 98.4334L111.302 99.5928C111.214 99.6438 111.207 99.7186 111.282 99.7594L115.94 102.476C115.985 102.499 116.035 102.511 116.086 102.511C116.137 102.511 116.187 102.499 116.232 102.476L118.238 101.317C118.32 101.259 118.32 101.184 118.259 101.14V101.126ZM87.176 116.868C87.1303 116.846 87.0804 116.835 87.0298 116.835C86.9792 116.835 86.9292 116.846 86.8836 116.868L84.4152 118.296C84.3302 118.344 84.32 118.419 84.3982 118.463L86.3158 119.571C86.361 119.594 86.4111 119.607 86.462 119.607C86.5128 119.607 86.563 119.594 86.6082 119.571L89.0766 118.147C89.1616 118.096 89.1684 118.021 89.0936 117.977L87.176 116.868ZM94.5812 112.594C94.5366 112.571 94.487 112.559 94.4367 112.559C94.3864 112.559 94.3368 112.571 94.2922 112.594L91.205 114.376C91.12 114.424 91.1132 114.498 91.188 114.543L93.1056 115.651C93.1508 115.674 93.2009 115.686 93.2518 115.686C93.3026 115.686 93.3528 115.674 93.398 115.651L96.4852 113.869C96.5702 113.822 96.577 113.747 96.5022 113.703L94.5812 112.594ZM80.3862 120.788C80.3405 120.767 80.2906 120.755 80.24 120.755C80.1894 120.755 80.1395 120.767 80.0938 120.788L63.5834 130.308C63.4984 130.359 63.4882 130.434 63.5834 130.478L65.501 131.587C65.5466 131.609 65.5966 131.62 65.6472 131.62C65.6978 131.62 65.7477 131.609 65.7934 131.587L82.28 122.06C82.365 122.009 82.3718 121.934 82.28 121.89L80.3862 120.788ZM62.9476 130.856C62.9019 130.834 62.852 130.823 62.8014 130.823C62.7508 130.823 62.7009 130.834 62.6552 130.856L60.18 132.294C60.095 132.342 60.0882 132.416 60.163 132.461L62.084 133.569C62.1286 133.592 62.1782 133.604 62.2285 133.604C62.2788 133.604 62.3284 133.592 62.373 133.569L64.8448 132.144C64.9298 132.093 64.9366 132.019 64.8448 131.974L62.9476 130.856ZM83.7794 118.83C83.7348 118.807 83.6852 118.795 83.6349 118.795C83.5846 118.795 83.535 118.807 83.4904 118.83L81.0186 120.255C80.9336 120.306 80.9268 120.38 81.0186 120.425L82.9396 121.53C82.9844 121.552 83.0339 121.564 83.0841 121.564C83.1343 121.564 83.1838 121.552 83.2286 121.53L85.7004 120.102C85.7854 120.054 85.7922 119.979 85.7174 119.935L83.7794 118.83ZM59.5544 132.818C59.5092 132.794 59.459 132.782 59.4082 132.782C59.3573 132.782 59.3072 132.794 59.262 132.818L56.78 134.252C56.695 134.303 56.6848 134.378 56.78 134.422L58.6976 135.527C58.7433 135.549 58.7932 135.56 58.8438 135.56C58.8944 135.56 58.9443 135.549 58.99 135.527L61.4584 134.099C61.5434 134.052 61.5502 133.977 61.4754 133.933L59.5544 132.818ZM90.5692 114.92C90.524 114.897 90.4738 114.885 90.423 114.885C90.3721 114.885 90.322 114.897 90.2768 114.92L87.8084 116.345C87.7234 116.396 87.7166 116.47 87.7914 116.515L89.7124 117.623C89.7576 117.644 89.8069 117.655 89.8569 117.655C89.9068 117.655 89.9562 117.644 90.0014 117.623L92.4732 116.195C92.5582 116.147 92.565 116.073 92.4732 116.028L90.5692 114.92ZM101.062 108.861C101.016 108.84 100.967 108.829 100.917 108.829C100.867 108.829 100.818 108.84 100.773 108.861L98.7666 110.021C98.6816 110.068 98.6714 110.143 98.7496 110.187L100.667 111.296C100.712 111.319 100.763 111.331 100.813 111.331C100.864 111.331 100.914 111.319 100.96 111.296L102.966 110.14C103.051 110.089 103.057 110.014 102.983 109.97L101.062 108.861ZM107.63 104.278L109.636 103.122C109.721 103.071 109.728 102.996 109.653 102.952L107.736 101.844C107.69 101.822 107.64 101.811 107.59 101.811C107.539 101.811 107.489 101.822 107.443 101.844L105.437 103.003C105.352 103.051 105.346 103.125 105.42 103.17L107.338 104.278C107.384 104.3 107.435 104.31 107.485 104.308C107.536 104.307 107.586 104.293 107.63 104.268V104.278ZM95.6658 104.856L97.6718 103.697C97.7568 103.649 97.7636 103.571 97.6888 103.527L95.7712 102.422C95.726 102.398 95.6758 102.386 95.625 102.386C95.5741 102.386 95.524 102.398 95.4788 102.422L93.4728 103.578C93.3878 103.629 93.381 103.703 93.4558 103.748L95.3734 104.856C95.4198 104.876 95.4701 104.886 95.5207 104.884C95.5713 104.882 95.6209 104.869 95.6658 104.846V104.856ZM87.8798 115.682L93.7414 112.299C93.8264 112.248 93.8366 112.173 93.7584 112.129L91.8408 111.02C91.7951 110.998 91.7452 110.987 91.6946 110.987C91.644 110.987 91.5941 110.998 91.5484 111.02L85.6834 114.42C85.5984 114.468 85.5916 114.543 85.6834 114.587L87.6044 115.695C87.6491 115.712 87.6971 115.719 87.7448 115.715C87.7925 115.71 87.8386 115.696 87.8798 115.671V115.682ZM104.407 105.981C104.452 106.005 104.503 106.017 104.553 106.017C104.604 106.017 104.654 106.005 104.7 105.981L106.706 104.822C106.791 104.774 106.797 104.7 106.723 104.655L104.802 103.547C104.756 103.526 104.707 103.515 104.657 103.515C104.607 103.515 104.558 103.526 104.513 103.547L102.507 104.706C102.418 104.754 102.411 104.829 102.486 104.873L104.407 105.981ZM101.956 104.38L103.962 103.221C104.047 103.17 104.057 103.095 103.979 103.051L102.061 101.946C102.016 101.924 101.966 101.913 101.915 101.913C101.864 101.913 101.814 101.924 101.769 101.946L99.7628 103.105C99.6778 103.156 99.671 103.231 99.7458 103.275L101.66 104.38C101.706 104.404 101.756 104.416 101.808 104.416C101.859 104.416 101.91 104.404 101.956 104.38ZM84.9558 117.365L86.9618 116.205C87.0468 116.158 87.057 116.083 86.9618 116.039L85.051 114.92C85.0053 114.898 84.9554 114.887 84.9048 114.887C84.8542 114.887 84.8042 114.898 84.7586 114.92L82.7526 116.079C82.6676 116.127 82.6608 116.202 82.7526 116.246L84.6736 117.354C84.7152 117.376 84.7613 117.389 84.8084 117.391C84.8555 117.392 84.9024 117.384 84.9456 117.365H84.9558ZM97.92 109.715C97.9652 109.736 98.0145 109.747 98.0645 109.747C98.1144 109.747 98.1638 109.736 98.209 109.715L100.215 108.555C100.303 108.508 100.31 108.429 100.235 108.389L98.3144 107.28C98.2692 107.257 98.219 107.245 98.1682 107.245C98.1173 107.245 98.0672 107.257 98.022 107.28L96.016 108.436C95.931 108.487 95.9242 108.562 95.999 108.606L97.92 109.715ZM70.2814 125.827L72.2874 124.671C72.3724 124.62 72.3792 124.545 72.3044 124.501L70.38 123.393C70.3348 123.372 70.2854 123.361 70.2355 123.361C70.1855 123.361 70.1362 123.372 70.091 123.393L68.085 124.552C67.9966 124.603 67.9898 124.678 68.0646 124.719L69.9856 125.827C70.0321 125.852 70.0841 125.865 70.1369 125.865C70.1897 125.865 70.2417 125.852 70.2882 125.827H70.2814ZM73.2122 124.127L75.2182 122.968C75.3032 122.917 75.31 122.842 75.2352 122.798L73.3244 121.72C73.2792 121.697 73.229 121.685 73.1782 121.685C73.1273 121.685 73.0772 121.697 73.032 121.72L71.026 122.876C70.941 122.927 70.9342 123.002 71.009 123.046L72.9266 124.154C72.9735 124.174 73.0241 124.182 73.0747 124.179C73.1253 124.176 73.1746 124.162 73.219 124.137L73.2122 124.127ZM67.3472 127.51L69.3532 126.354C69.4382 126.303 69.4484 126.228 69.3702 126.184L67.4526 125.076C67.4069 125.054 67.357 125.043 67.3064 125.043C67.2558 125.043 67.2059 125.054 67.1602 125.076L65.1542 126.235C65.0692 126.283 65.0624 126.361 65.1372 126.402L67.0582 127.51C67.1028 127.536 67.1532 127.551 67.2048 127.553C67.2564 127.554 67.3077 127.543 67.354 127.52L67.3472 127.51ZM79.0772 120.741L81.0832 119.581C81.1682 119.534 81.175 119.459 81.1002 119.415L79.186 118.32C79.1408 118.297 79.0906 118.285 79.0398 118.285C78.9889 118.285 78.9388 118.297 78.8936 118.32L76.8876 119.476C76.8026 119.527 76.7958 119.602 76.8876 119.646L78.8086 120.754C78.8522 120.773 78.8992 120.782 78.9466 120.782C78.9941 120.781 79.0409 120.771 79.084 120.751L79.0772 120.741ZM76.143 122.441L78.149 121.281C78.234 121.234 78.2442 121.156 78.149 121.115L76.2552 120.02C76.21 119.997 76.1598 119.985 76.109 119.985C76.0581 119.985 76.008 119.997 75.9628 120.02L73.9568 121.176C73.8718 121.227 73.865 121.302 73.9398 121.346L75.8608 122.454C75.9081 122.476 75.9597 122.486 76.0116 122.484C76.0634 122.482 76.1142 122.469 76.16 122.444L76.143 122.441ZM82.008 119.041L84.014 117.881C84.099 117.834 84.1058 117.759 84.014 117.715L82.1202 116.62C82.075 116.597 82.0248 116.585 81.974 116.585C81.9231 116.585 81.873 116.597 81.8278 116.62L79.8218 117.779C79.7368 117.827 79.7266 117.902 79.8048 117.946L81.7224 119.054C81.7678 119.077 81.8176 119.089 81.8682 119.089C81.9188 119.09 81.9689 119.079 82.0148 119.058L82.008 119.041ZM98.0084 95.4924C98.053 95.5156 98.1026 95.5278 98.1529 95.5278C98.2032 95.5278 98.2528 95.5156 98.2974 95.4924L100.303 94.333C100.388 94.2854 100.399 94.2106 100.32 94.1664L99.8104 93.8706C99.7647 93.8489 99.7148 93.8376 99.6642 93.8376C99.6136 93.8376 99.5637 93.8489 99.518 93.8706L97.512 95.03C97.427 95.0776 97.4202 95.1524 97.495 95.1966L98.0084 95.4924ZM83.436 104.72C83.4812 104.741 83.5305 104.752 83.5805 104.752C83.6304 104.752 83.6798 104.741 83.725 104.72L85.731 103.561C85.816 103.513 85.8262 103.435 85.748 103.394L83.8304 102.286C83.7852 102.262 83.735 102.25 83.6842 102.25C83.6333 102.25 83.5832 102.262 83.538 102.286L81.532 103.442C81.447 103.493 81.4402 103.567 81.532 103.612L83.436 104.72ZM89.2976 101.32C89.3433 101.342 89.3932 101.353 89.4438 101.353C89.4944 101.353 89.5443 101.342 89.59 101.32L91.596 100.161C91.681 100.113 91.6878 100.038 91.613 99.994L89.6954 98.8856C89.6502 98.8623 89.6 98.8502 89.5492 98.8502C89.4983 98.8502 89.4482 98.8623 89.403 98.8856L87.397 100.045C87.312 100.093 87.3052 100.167 87.38 100.212L89.2976 101.32ZM79.8558 106.76C79.901 106.781 79.9503 106.792 80.0003 106.792C80.0502 106.792 80.0996 106.781 80.1448 106.76L82.1508 105.601C82.2358 105.553 82.246 105.475 82.1678 105.434L80.2502 104.326C80.205 104.302 80.1548 104.29 80.104 104.29C80.0531 104.29 80.003 104.302 79.9578 104.326L77.9518 105.482C77.8668 105.533 77.86 105.607 77.9518 105.652L79.8558 106.76ZM86.36 103.044C86.4057 103.066 86.4556 103.077 86.5062 103.077C86.5568 103.077 86.6067 103.066 86.6524 103.044L88.6584 101.884C88.7434 101.837 88.7502 101.762 88.6754 101.718L86.7544 100.609C86.7098 100.586 86.6602 100.574 86.6099 100.574C86.5596 100.574 86.51 100.586 86.4654 100.609L84.4594 101.765C84.371 101.816 84.3642 101.891 84.439 101.935L86.36 103.044ZM73.984 110.184C74.0292 110.207 74.0793 110.219 74.1302 110.219C74.181 110.219 74.2312 110.207 74.2764 110.184L76.2824 109.028C76.3674 108.977 76.3742 108.902 76.2824 108.858L74.3614 107.749C74.3162 107.728 74.2668 107.717 74.2169 107.717C74.1669 107.717 74.1176 107.728 74.0724 107.749L72.0664 108.909C71.978 108.96 71.9712 109.035 72.0494 109.075L73.984 110.184ZM76.9148 108.484C76.9605 108.506 77.0104 108.517 77.061 108.517C77.1116 108.517 77.1615 108.506 77.2072 108.484L79.2132 107.324C79.2982 107.273 79.305 107.199 79.2132 107.154L77.2956 106.049C77.2499 106.028 77.2 106.016 77.1494 106.016C77.0988 106.016 77.0489 106.028 77.0032 106.049L74.9972 107.209C74.9122 107.26 74.9054 107.335 74.9972 107.379L76.9148 108.484ZM92.14 98.8958C92.1856 98.9176 92.2356 98.9288 92.2862 98.9288C92.3368 98.9288 92.3867 98.9176 92.4324 98.8958L94.4384 97.7364C94.5234 97.6888 94.5302 97.614 94.4384 97.5698L93.9284 97.274C93.8832 97.2507 93.833 97.2386 93.7822 97.2386C93.7313 97.2386 93.6812 97.2507 93.636 97.274L91.63 98.4334C91.545 98.481 91.5348 98.5558 91.613 98.6L92.14 98.8958ZM100.936 93.8162C100.981 93.8395 101.031 93.8516 101.082 93.8516C101.133 93.8516 101.183 93.8395 101.228 93.8162L103.234 92.6602C103.319 92.6092 103.326 92.5344 103.234 92.4902L102.724 92.1944C102.679 92.1727 102.629 92.1614 102.578 92.1614C102.527 92.1614 102.477 92.1727 102.432 92.1944L100.426 93.3538C100.341 93.4014 100.331 93.4796 100.409 93.5204L100.936 93.8162ZM104.968 96.1452C105.013 96.1664 105.063 96.1774 105.113 96.1774C105.163 96.1774 105.212 96.1664 105.257 96.1452L107.263 94.9858C107.352 94.9382 107.358 94.8634 107.284 94.8192L105.363 93.7108C105.317 93.6875 105.267 93.6754 105.216 93.6754C105.166 93.6754 105.115 93.6875 105.07 93.7108L103.064 94.8668C102.979 94.9178 102.972 94.9926 103.047 95.0368L104.968 96.1452ZM110.551 102.575L112.557 101.419C112.642 101.368 112.652 101.293 112.574 101.249L110.656 100.14C110.611 100.118 110.561 100.107 110.51 100.107C110.46 100.107 110.41 100.118 110.364 100.14L108.358 101.3C108.273 101.347 108.266 101.425 108.341 101.466L110.262 102.575C110.308 102.6 110.359 102.613 110.412 102.613C110.464 102.613 110.515 102.6 110.561 102.575H110.551ZM95.0708 97.2026C95.1165 97.2244 95.1664 97.2356 95.217 97.2356C95.2676 97.2356 95.3175 97.2244 95.3632 97.2026L97.3692 96.0432C97.4542 95.9956 97.461 95.9208 97.3692 95.8766L96.8592 95.5808C96.814 95.5575 96.7638 95.5454 96.713 95.5454C96.6621 95.5454 96.612 95.5575 96.5668 95.5808L94.5608 96.7402C94.4758 96.7878 94.469 96.8626 94.5438 96.9068L95.0708 97.2026ZM71.06 111.88C71.1046 111.904 71.1542 111.916 71.2045 111.916C71.2548 111.916 71.3044 111.904 71.349 111.88L73.355 110.724C73.44 110.673 73.4502 110.599 73.355 110.554L71.4374 109.446C71.3917 109.424 71.3418 109.413 71.2912 109.413C71.2406 109.413 71.1907 109.424 71.145 109.446L69.139 110.605C69.054 110.653 69.0472 110.728 69.139 110.772L71.06 111.88Z" fill="#263238"/>
<path opacity="0.4" d="M79.7437 127.004L80.1551 127.238L91.0793 133.545L110.507 122.329L110.911 122.097L99.5759 115.556L79.7437 127.004Z" fill="black"/>
<path d="M80.155 127.238L91.0792 133.545L110.507 122.329L99.5758 116.022L80.155 127.238Z" fill="#C5E3FF"/>
<path opacity="0.45" d="M80.155 127.238L91.0792 133.545L110.507 122.329L99.5758 116.022L80.155 127.238Z" fill="black"/>
<path d="M23.7186 124.957C23.8932 125.058 24.0793 125.138 24.2728 125.195C24.0795 125.14 23.8935 125.062 23.7186 124.964C23.6599 124.929 23.6031 124.892 23.5486 124.851C23.6032 124.89 23.66 124.925 23.7186 124.957Z" fill="#C5E3FF"/>
<path d="M26.8601 125.121C26.8601 125.121 26.8601 125.121 26.8914 125.093L26.8671 125.114L26.8601 125.121Z" fill="#C5E3FF"/>
<path d="M152.184 8.3504L109.004 33.2826C108.8 33.4148 108.63 33.5934 108.508 33.8037C108.387 34.0141 108.316 34.2503 108.303 34.493V82.841C108.317 83.083 108.388 83.3184 108.51 83.5276C108.633 83.7369 108.803 83.9141 109.007 84.0446L110.282 84.7654C110.5 84.8736 110.741 84.9298 110.984 84.9298C111.228 84.9298 111.468 84.8736 111.686 84.7654L154.866 59.8332C155.07 59.7004 155.239 59.5216 155.36 59.3113C155.481 59.101 155.551 58.8651 155.563 58.6228V10.268C155.551 10.0262 155.48 9.79097 155.358 9.58169C155.237 9.37241 155.067 9.1951 154.863 9.0644L153.585 8.3436C153.366 8.23653 153.126 8.18143 152.883 8.18261C152.64 8.18378 152.401 8.24122 152.184 8.3504Z" fill="#FAFAFA"/>
<path d="M110.986 84.354V36.006C110.999 35.7634 111.07 35.5273 111.191 35.3169C111.313 35.1066 111.483 34.928 111.686 34.7956L154.866 9.86C155.251 9.639 155.563 9.8192 155.563 10.2646V58.616C155.551 58.8583 155.481 59.0942 155.36 59.3045C155.239 59.5149 155.07 59.6936 154.866 59.8264L111.686 84.7586C111.299 84.9796 110.986 84.7994 110.986 84.354Z" fill="#37474F"/>
<path d="M111.686 84.7586C111.468 84.8643 111.227 84.9192 110.984 84.9192C110.741 84.9192 110.501 84.8643 110.282 84.7586L109.007 84.0344C108.802 83.9053 108.632 83.7289 108.509 83.52C108.387 83.3112 108.316 83.076 108.303 82.8342V34.493C108.313 34.2393 108.391 33.9928 108.528 33.779L111.193 35.3192C111.066 35.524 110.995 35.7584 110.986 35.9992V84.354C110.986 84.762 111.275 85 111.686 84.7586Z" fill="#263238"/>
<path d="M155.557 10.1422C155.502 9.8022 155.217 9.6628 154.877 9.8634L111.697 34.7956C111.49 34.9246 111.32 35.105 111.204 35.3192L108.535 33.779C108.649 33.5751 108.814 33.4041 109.014 33.2826L152.194 8.3504C152.411 8.24047 152.651 8.18318 152.894 8.18318C153.138 8.18318 153.378 8.24047 153.595 8.3504L154.87 9.0712C155.054 9.19099 155.21 9.34839 155.328 9.53301C155.447 9.71763 155.524 9.92526 155.557 10.1422Z" fill="#455A64"/>
<path d="M103.044 63.4032C102.605 63.1414 100.569 61.982 100.463 61.9208C100.381 61.8708 100.311 61.8032 100.258 61.7227C100.205 61.6423 100.17 61.5511 100.157 61.4558C100.144 61.3604 100.152 61.2633 100.181 61.1714C100.209 61.0796 100.258 60.9953 100.324 60.9246L108.365 52.2988L110.986 53.805L102.949 62.4308C102.885 62.4982 102.837 62.5784 102.807 62.666C102.777 62.7536 102.767 62.8465 102.776 62.9386C102.785 63.0307 102.813 63.1197 102.859 63.1999C102.906 63.28 102.969 63.3493 103.044 63.4032Z" fill="#FAFAFA"/>
<path d="M103.044 63.4032C102.605 63.1414 100.569 61.982 100.463 61.9208C100.381 61.8708 100.311 61.8032 100.258 61.7227C100.205 61.6423 100.17 61.5511 100.157 61.4558C100.144 61.3604 100.152 61.2633 100.181 61.1714C100.209 61.0796 100.258 60.9953 100.324 60.9246L108.365 52.2988L110.986 53.805L102.949 62.4308C102.885 62.4982 102.837 62.5784 102.807 62.666C102.777 62.7536 102.767 62.8465 102.776 62.9386C102.785 63.0307 102.813 63.1197 102.859 63.1999C102.906 63.28 102.969 63.3493 103.044 63.4032Z" fill="#455A64"/>
<path d="M110.986 53.805L102.949 62.4308C102.86 62.526 102.802 62.6459 102.782 62.7746C102.763 62.9034 102.783 63.035 102.839 63.1523C102.896 63.2696 102.986 63.367 103.099 63.4318C103.212 63.4966 103.342 63.5257 103.472 63.5154L110.986 62.8966V53.805Z" fill="#FAFAFA"/>
<path d="M110.986 53.805L102.949 62.4308C102.86 62.526 102.802 62.6459 102.782 62.7746C102.763 62.9034 102.783 63.035 102.839 63.1523C102.896 63.2696 102.986 63.367 103.099 63.4318C103.212 63.4966 103.342 63.5257 103.472 63.5154L110.986 62.8966V53.805Z" fill="#37474F"/>
<path d="M135.619 49.895C135.004 49.5244 134.144 49.555 133.192 50.1194C131.308 51.2074 129.792 53.8594 129.792 56.0286C129.792 57.1098 130.169 57.868 130.781 58.2284C131.182 58.463 132.712 59.3402 133.107 59.5884C133.725 59.9522 134.579 59.9046 135.527 59.3572C137.411 58.2692 138.927 55.6172 138.927 53.448C138.927 52.3736 138.55 51.612 137.941 51.255C137.54 51 136 50.1262 135.619 49.895Z" fill="#EBEBEB"/>
<path d="M136.741 58.3678L130.012 54.4816C129.866 54.9845 129.788 55.5049 129.781 56.0286C129.781 57.1098 130.159 57.868 130.771 58.2284C131.172 58.463 132.702 59.3402 133.096 59.5884C133.715 59.9522 134.568 59.9046 135.517 59.3572C135.968 59.0845 136.38 58.7516 136.741 58.3678Z" fill="#E0E0E0"/>
<path d="M135.514 51.4624C133.63 52.5504 132.114 55.2024 132.114 57.3716C132.114 59.5408 133.644 60.4316 135.514 59.3402C137.384 58.2488 138.914 55.6002 138.914 53.431C138.914 51.2618 137.397 50.3744 135.514 51.4624Z" fill="#FAFAFA"/>
<path d="M135.514 52.8564C134.873 53.2753 134.339 53.8392 133.956 54.5025C133.574 55.1658 133.352 55.9099 133.311 56.6746C133.311 58.0788 134.3 58.65 135.517 57.9462C136.158 57.5273 136.692 56.9634 137.075 56.3001C137.457 55.6368 137.679 54.8927 137.72 54.128C137.717 52.7238 136.731 52.156 135.514 52.8564Z" fill="#37474F"/>
<path d="M150.28 46.8452C150.28 47.1614 150.28 47.4334 150.263 47.753L146.411 49.98L144.092 48.6404C144.092 48.382 144.092 48.0046 144.092 47.7496C144.092 45.118 143.466 43.0134 142.392 41.5276L145.52 37.06L147.842 38.3996C149.386 40.3682 150.28 43.2276 150.28 46.8452Z" fill="#C5E3FF"/>
<path d="M150.28 46.8452C150.28 47.1648 150.28 47.4334 150.263 47.753L146.411 49.98C146.411 49.7216 146.428 49.3476 146.428 49.0892C146.428 46.461 145.802 44.353 144.728 42.8706L147.839 38.42C149.386 40.3682 150.28 43.231 150.28 46.8452Z" fill="#C5E3FF"/>
<path opacity="0.1" d="M144.717 42.8672L142.395 41.5276L145.516 37.06L147.839 38.403L144.717 42.8672Z" fill="black"/>
<path opacity="0.2" d="M146.424 49.0858C146.424 49.3442 146.424 49.7182 146.424 49.9766L144.106 48.637C144.106 48.3786 144.106 48.0012 144.106 47.7462C144.106 45.1146 143.48 43.01 142.406 41.5242L144.728 42.8842C145.802 44.3496 146.424 46.4576 146.424 49.0858Z" fill="black"/>
<path d="M147.145 37.3048L144.038 41.752L141.715 40.392L141.586 40.2764C140.592 39.9917 139.549 39.9245 138.526 40.0792L136.194 38.76L137.36 33.7926C139.594 33.4526 141.596 33.7926 143.245 34.7412L145.517 36.0468C145.619 36.1046 145.721 36.1658 145.819 36.2304L146.02 36.363C146.088 36.4072 146.156 36.4514 146.22 36.5024C146.285 36.5534 146.316 36.5704 146.36 36.6078C146.541 36.7489 146.715 36.8999 146.88 37.06C146.982 37.1416 147.064 37.2198 147.145 37.3048Z" fill="#C5E3FF"/>
<path opacity="0.2" d="M144.038 41.752L141.715 40.392L141.59 40.2798C142.515 40.5609 143.356 41.0667 144.038 41.752Z" fill="black"/>
<path opacity="0.2" d="M147.148 37.3048L144.037 41.752C142.65 40.392 140.739 39.7868 138.516 40.0962L139.662 35.1356C142.677 34.68 145.278 35.445 147.148 37.3048Z" fill="white"/>
<path opacity="0.1" d="M137.34 33.7926L139.662 35.1356L138.516 40.0962L136.194 38.7566L137.34 33.7926Z" fill="black"/>
<path opacity="0.5" d="M143.228 34.7412L145.499 36.0468C143.861 35.1152 141.875 34.7888 139.662 35.1322L137.36 33.7926C139.577 33.4458 141.579 33.7858 143.228 34.7412Z" fill="white"/>
<path d="M138.543 35.36L137.397 40.3138C136.265 40.6211 135.178 41.0785 134.167 41.6738C133.007 42.3543 131.919 43.1518 130.92 44.0538L128.601 42.6938L127.476 39.0252C128.808 37.8122 130.263 36.7421 131.818 35.8326C133.194 35.0191 134.675 34.4 136.221 33.9932L138.543 35.36Z" fill="#C5E3FF"/>
<path opacity="0.05" d="M127.476 39.0558L129.798 40.3988L130.92 44.0674L128.601 42.7278L127.476 39.0558Z" fill="black"/>
<path opacity="0.6" d="M138.543 35.36C136.991 35.7626 135.504 36.3806 134.123 37.196C132.57 38.1079 131.115 39.1777 129.781 40.3886L127.459 39.049C128.791 37.836 130.246 36.7659 131.801 35.8564C133.177 35.0429 134.658 34.4238 136.204 34.017L138.543 35.36Z" fill="white"/>
<path opacity="0.4" d="M138.543 35.36L137.401 40.3138C136.268 40.6201 135.181 41.0775 134.171 41.6738C133.01 42.3535 131.921 43.1511 130.924 44.0538L129.798 40.3852C131.13 39.1722 132.585 38.1021 134.14 37.1926C135.515 36.38 136.997 35.7632 138.543 35.36Z" fill="white"/>
<path d="M129.829 45.1078C127.716 47.2813 125.957 49.7733 124.617 52.4926L121.584 51.3944L119.262 50.0514C121.081 46.3689 123.484 43.0048 126.378 40.0894L128.7 41.4494L129.829 45.1078Z" fill="#C5E3FF"/>
<path opacity="0.7" d="M128.7 41.4324C125.805 44.3465 123.402 47.7108 121.584 51.3944L119.262 50.0514C121.081 46.3689 123.484 43.0048 126.378 40.0894L128.7 41.4324Z" fill="white"/>
<path opacity="0.6" d="M129.829 45.1078C127.716 47.2826 125.957 49.7757 124.617 52.496L121.584 51.3944C123.402 47.7108 125.805 44.3465 128.7 41.4324L129.829 45.1078Z" fill="white"/>
<path d="M123.916 53.9988C122.696 56.8582 121.968 59.67 121.924 62.4512L118.01 64.7122L115.688 63.3522C115.763 59.5374 116.81 55.437 118.551 51.5406L121.611 52.6422L123.916 53.9988Z" fill="#C5E3FF"/>
<path opacity="0.6" d="M120.873 52.8972L118.551 51.5576L121.597 52.6592L123.92 53.9988L120.873 52.8972Z" fill="white"/>
<path opacity="0.9" d="M120.873 52.8972C119.129 56.797 118.085 60.894 118.01 64.7122L115.688 63.3522C115.763 59.5374 116.81 55.437 118.551 51.5406L120.873 52.8972Z" fill="white"/>
<path opacity="0.75" d="M123.92 53.9988C122.696 56.8548 121.968 59.67 121.92 62.4512L118.01 64.7088C118.085 60.894 119.129 56.7936 120.873 52.8938L123.92 53.9988Z" fill="white"/>
<path d="M148.454 45.0262L147.839 44.6794L131.08 57.6844L131.131 60.1732L131.746 60.52L148.454 45.0262Z" fill="#E0E0E0"/>
<path d="M131.747 60.52L131.699 58.0312L148.454 45.0262L131.747 60.52Z" fill="#EBEBEB"/>
<path d="M131.08 57.6844L131.699 58.0312L148.454 45.0262L147.839 44.6794L131.08 57.6844Z" fill="white"/>
</svg>
