<svg width="500" height="500" viewBox="0 0 500 500" fill="none" xmlns="http://www.w3.org/2000/svg">
<path d="M472 347.731H28V347.953H472V347.731Z" fill="#EBEBEB"/>
<path d="M427.511 362.019H398.101V362.241H427.511V362.019Z" fill="#EBEBEB"/>
<path d="M322.123 364.434H314.407V364.656H322.123V364.434Z" fill="#EBEBEB"/>
<path d="M397.213 353.778H380.172V354H397.213V353.778Z" fill="#EBEBEB"/>
<path d="M112.937 355.27H74.5845V355.492H112.937V355.27Z" fill="#EBEBEB"/>
<path d="M126.47 355.27H120.849V355.492H126.47V355.27Z" fill="#EBEBEB"/>
<path d="M227.933 359.018H144.745V359.24H227.933V359.018Z" fill="#EBEBEB"/>
<path d="M239.147 308.304H82.3565C81.1282 308.302 79.9509 307.789 79.0832 306.878C78.2154 305.967 77.728 304.732 77.728 303.445V72.4724C77.7387 71.1926 78.2308 69.9689 79.0974 69.0671C79.9641 68.1653 81.1352 67.6582 82.3565 67.656H239.147C240.377 67.656 241.556 68.1679 242.426 69.0791C243.296 69.9904 243.784 71.2263 243.784 72.5149V303.445C243.784 304.734 243.296 305.97 242.426 306.881C241.556 307.792 240.377 308.304 239.147 308.304ZM82.3565 67.8262C81.182 67.8285 80.0564 68.3189 79.2267 69.19C78.397 70.0611 77.931 71.2416 77.931 72.4724V303.445C77.931 304.676 78.397 305.856 79.2267 306.727C80.0564 307.599 81.182 308.089 82.3565 308.091H239.147C240.323 308.089 241.449 307.599 242.28 306.728C243.111 305.857 243.579 304.677 243.581 303.445V72.4724C243.579 71.2408 243.111 70.0604 242.28 69.1895C241.449 68.3187 240.323 67.8284 239.147 67.8262H82.3565Z" fill="#EBEBEB"/>
<path d="M410.696 308.304H258.928C257.738 308.302 256.598 307.766 255.757 306.815C254.916 305.864 254.442 304.575 254.44 303.23V62.0296C254.452 60.6924 254.93 59.4145 255.77 58.473C256.611 57.5315 257.745 57.0023 258.928 57H410.696C411.877 57.0046 413.008 57.5352 413.845 58.4767C414.682 59.4181 415.158 60.6947 415.168 62.0296V303.23C415.168 304.573 414.697 305.861 413.859 306.812C413.021 307.763 411.883 308.299 410.696 308.304ZM258.928 57.1777C257.79 57.1801 256.7 57.692 255.896 58.6014C255.091 59.5108 254.639 60.7435 254.636 62.0296V303.23C254.639 304.516 255.091 305.749 255.896 306.658C256.7 307.568 257.79 308.08 258.928 308.082H410.696C411.833 308.08 412.924 307.568 413.728 306.658C414.532 305.749 414.985 304.516 414.987 303.23V62.0296C414.985 60.7435 414.532 59.5108 413.728 58.6014C412.924 57.692 411.833 57.1801 410.696 57.1777H258.928Z" fill="#EBEBEB"/>
<path d="M285.245 162.725L407.593 162.725V82.6011L285.245 82.6011V162.725Z" fill="#E6E6E6"/>
<path d="M281.506 162.725L405.844 162.725V82.6011L281.506 82.6011V162.725Z" fill="#F0F0F0"/>
<path d="M285.245 178.443L407.593 178.443V162.716H285.245V178.443Z" fill="#E6E6E6"/>
<path d="M275.299 178.443L399.637 178.443V162.716L275.299 162.716V178.443Z" fill="#F0F0F0"/>
<path d="M400.623 157.504V87.8314H286.737V157.504H400.623Z" fill="#FAFAFA"/>
<path d="M374.942 157.495L360.396 87.8314H337.699L352.244 157.495H374.942Z" fill="white"/>
<path d="M398.207 152.3C398.257 152.3 398.306 152.29 398.352 152.271C398.398 152.252 398.439 152.223 398.474 152.188C398.509 152.152 398.536 152.11 398.554 152.064C398.573 152.017 398.581 151.968 398.58 151.918V91.2324C398.58 91.1335 398.541 91.0386 398.471 90.9687C398.401 90.8987 398.306 90.8594 398.207 90.8594C398.158 90.8582 398.109 90.867 398.063 90.8853C398.017 90.9036 397.976 90.9311 397.941 90.966C397.906 91.0008 397.879 91.0424 397.86 91.0882C397.842 91.134 397.833 91.1831 397.834 91.2324V151.918C397.833 151.968 397.842 152.017 397.86 152.064C397.878 152.11 397.906 152.152 397.94 152.188C397.975 152.223 398.017 152.252 398.062 152.271C398.108 152.29 398.158 152.3 398.207 152.3Z" fill="#F0F0F0"/>
<path d="M347.369 157.495L332.824 87.8314H323.97L338.525 157.495H347.369Z" fill="white"/>
<path d="M287.403 157.504V87.8314H286.737V157.504H287.403Z" fill="#E6E6E6"/>
<path opacity="0.6" d="M280.281 95.7079H402.629L403.109 89.856H280.76L280.281 95.7079Z" fill="#EBEBEB"/>
<path opacity="0.6" d="M280.281 105.298H402.629L403.109 99.4553H280.76L280.281 105.298Z" fill="#EBEBEB"/>
<path opacity="0.6" d="M280.281 114.889H402.629L403.109 109.046H280.76L280.281 114.889Z" fill="#EBEBEB"/>
<path opacity="0.6" d="M280.281 124.488H402.629L403.109 118.636H280.76L280.281 124.488Z" fill="#EBEBEB"/>
<path opacity="0.6" d="M280.281 134.078H402.629L403.109 128.227H280.76L280.281 134.078Z" fill="#EBEBEB"/>
<path opacity="0.6" d="M280.281 143.669H402.629L403.109 137.817H280.76L280.281 143.669Z" fill="#EBEBEB"/>
<path d="M390.029 289.461H364.375V294.522H390.029V289.461Z" fill="#E6E6E6"/>
<path d="M315.987 347.731H320.72V231.341H315.987V347.731Z" fill="#E6E6E6"/>
<path d="M299.577 294.522H364.365V289.461H299.577V294.522Z" fill="#F5F5F5"/>
<path d="M390.029 317.14H364.375V322.201H390.029V317.14Z" fill="#E6E6E6"/>
<path d="M299.577 322.192H364.365V317.131H299.577V322.192Z" fill="#F5F5F5"/>
<path d="M390.029 234.112H364.375V239.173H390.029V234.112Z" fill="#E6E6E6"/>
<path d="M299.577 239.164H364.365V234.103H299.577V239.164Z" fill="#F5F5F5"/>
<path d="M390.029 261.782H364.375V266.843H390.029V261.782Z" fill="#E6E6E6"/>
<path d="M299.577 266.843H364.365V261.782H299.577V266.843Z" fill="#F5F5F5"/>
<path d="M380.785 347.731H385.518V231.341H380.785V347.731Z" fill="#E6E6E6"/>
<path d="M359.632 347.731H364.365V231.341H359.632V347.731Z" fill="#F5F5F5"/>
<path d="M299.577 347.731H304.31V231.341H299.577V347.731Z" fill="#F5F5F5"/>
<path d="M86.0574 347.731H134.524V253.701H86.0574L86.0574 347.731Z" fill="#E6E6E6"/>
<path d="M98.9956 347.731H86.0486V334.749H112.564L98.9956 347.731Z" fill="#FAFAFA"/>
<path d="M218.192 347.731H266.659V253.701H218.192V347.731Z" fill="#E6E6E6"/>
<path d="M86.0574 343.256H229.496V253.692H86.0574V343.256Z" fill="#FAFAFA"/>
<path d="M216.549 347.731H229.487V334.749H202.98L216.549 347.731Z" fill="#FAFAFA"/>
<path d="M96.0919 309.485H219.453V287.072H96.0919V309.485Z" fill="#F0F0F0"/>
<path d="M96.0919 336.684H219.453V314.271H96.0919V336.684Z" fill="#F0F0F0"/>
<path d="M196.01 289.47H119.544C118.465 289.47 117.431 289.041 116.668 288.278C115.905 287.516 115.477 286.481 115.477 285.403V285.127H200.068V285.403C200.068 286.48 199.641 287.513 198.88 288.275C198.119 289.038 197.087 289.467 196.01 289.47Z" fill="#FAFAFA"/>
<path d="M96.0919 282.277H219.453V259.863H96.0919V282.277Z" fill="#F0F0F0"/>
<path d="M196.01 262.261H119.544C118.465 262.261 117.431 261.833 116.668 261.07C115.905 260.307 115.477 259.273 115.477 258.194V257.919H200.068V258.194C200.068 259.271 199.641 260.304 198.88 261.067C198.119 261.829 197.087 262.259 196.01 262.261Z" fill="#FAFAFA"/>
<path d="M196.01 316.678H119.544C118.465 316.678 117.431 316.249 116.668 315.487C115.905 314.724 115.477 313.689 115.477 312.611V312.335H200.068V312.611C200.068 313.688 199.641 314.721 198.88 315.483C198.119 316.246 197.087 316.675 196.01 316.678Z" fill="#FAFAFA"/>
<path d="M93.7742 162.725L216.123 162.725V82.6011L93.7742 82.6011L93.7742 162.725Z" fill="#E6E6E6"/>
<path d="M90.0446 162.725L214.382 162.725V82.6011L90.0446 82.6011L90.0446 162.725Z" fill="#F0F0F0"/>
<path d="M93.7742 178.443L216.123 178.443V162.716H93.7742V178.443Z" fill="#E6E6E6"/>
<path d="M83.8195 178.443L208.157 178.443V162.716L83.8195 162.716V178.443Z" fill="#F0F0F0"/>
<path d="M209.152 157.504V87.8314H95.2661V157.504H209.152Z" fill="#FAFAFA"/>
<path d="M183.471 157.495L168.926 87.8314H146.228L160.774 157.495H183.471Z" fill="white"/>
<path d="M206.728 152.3C206.778 152.3 206.827 152.29 206.873 152.271C206.918 152.252 206.96 152.223 206.995 152.188C207.029 152.152 207.057 152.11 207.075 152.064C207.093 152.017 207.102 151.968 207.101 151.918V91.2324C207.102 91.1831 207.093 91.134 207.075 91.0882C207.057 91.0424 207.029 91.0008 206.994 90.966C206.959 90.9311 206.918 90.9036 206.872 90.8853C206.826 90.867 206.777 90.8582 206.728 90.8594C206.629 90.8594 206.534 90.8987 206.464 90.9687C206.394 91.0386 206.355 91.1335 206.355 91.2324V151.918C206.354 151.968 206.362 152.017 206.381 152.064C206.399 152.11 206.426 152.152 206.461 152.188C206.496 152.223 206.537 152.252 206.583 152.271C206.629 152.29 206.678 152.3 206.728 152.3Z" fill="#F0F0F0"/>
<path d="M155.899 157.495L141.353 87.8314H132.5L147.045 157.495H155.899Z" fill="white"/>
<path d="M95.9319 157.504V87.8314H95.2659V157.504H95.9319Z" fill="#E6E6E6"/>
<path opacity="0.6" d="M88.8013 95.7079H211.15L211.629 89.856H89.2808L88.8013 95.7079Z" fill="#EBEBEB"/>
<path opacity="0.6" d="M88.8013 99.0112H211.15L211.629 93.1593H89.2808L88.8013 99.0112Z" fill="#EBEBEB"/>
<path opacity="0.6" d="M88.8013 102.306H211.15L211.629 96.4627H89.2808L88.8013 102.306Z" fill="#EBEBEB"/>
<path opacity="0.6" d="M88.8013 105.609H211.15L211.629 99.7572H89.2808L88.8013 105.609Z" fill="#EBEBEB"/>
<path opacity="0.6" d="M88.8013 108.904H211.15L211.629 103.061H89.2808L88.8013 108.904Z" fill="#EBEBEB"/>
<path opacity="0.6" d="M88.8013 112.207H211.15L211.629 106.355H89.2808L88.8013 112.207Z" fill="#EBEBEB"/>
<path d="M113.266 250.824H117.493V203.68H113.266V250.824Z" fill="#F5F5F5"/>
<path d="M113.799 250.797H114.997V203.653H113.799V250.797Z" fill="#FAFAFA"/>
<path d="M115.495 250.797H115.965V203.653H115.495V250.797Z" fill="#FAFAFA"/>
<path d="M131.035 253.701H99.7415C99.7415 252.655 100.157 251.652 100.896 250.913C101.636 250.174 102.639 249.758 103.684 249.758H127.083C128.129 249.758 129.132 250.174 129.871 250.913C130.61 251.652 131.026 252.655 131.026 253.701H131.035Z" fill="#F0F0F0"/>
<path d="M107.778 232.948C108.1 232.946 108.408 232.817 108.636 232.589C108.863 232.362 108.992 232.054 108.994 231.732V200.856C108.994 200.533 108.866 200.224 108.638 199.996C108.41 199.768 108.101 199.639 107.778 199.639C107.617 199.638 107.458 199.669 107.31 199.729C107.161 199.79 107.026 199.88 106.912 199.993C106.798 200.106 106.708 200.24 106.646 200.388C106.584 200.537 106.552 200.695 106.552 200.856V231.767C106.564 232.085 106.698 232.385 106.927 232.605C107.155 232.826 107.46 232.949 107.778 232.948Z" fill="#F0F0F0"/>
<path d="M96.4382 214.886H134.311L129.951 188.424H100.798L96.4382 214.886Z" fill="#E0E0E0"/>
<path d="M264 442.56C371.083 442.56 457.89 437.492 457.89 431.24C457.89 424.988 371.083 419.92 264 419.92C156.918 419.92 70.1101 424.988 70.1101 431.24C70.1101 437.492 156.918 442.56 264 442.56Z" fill="#F5F5F5"/>
<path d="M118.119 217.359L117.121 217.431L118.45 235.873L119.447 235.801L118.119 217.359Z" fill="#1890FF"/>
<path d="M120.125 245.322L119.127 245.394L119.627 252.336L120.625 252.264L120.125 245.322Z" fill="#1890FF"/>
<path d="M351.71 330.16H137.55C135.166 330.117 132.882 329.193 131.139 327.567C129.396 325.94 128.317 323.725 128.11 321.35L117.59 175.22C117.492 174.093 117.631 172.958 117.999 171.888C118.366 170.818 118.954 169.837 119.723 169.008C120.493 168.179 121.428 167.521 122.468 167.075C123.507 166.629 124.629 166.406 125.76 166.42H339.92C342.302 166.463 344.585 167.385 346.327 169.01C348.07 170.635 349.15 172.847 349.36 175.22L359.88 321.35C359.978 322.478 359.838 323.613 359.471 324.683C359.104 325.754 358.516 326.735 357.747 327.565C356.977 328.395 356.043 329.054 355.003 329.501C353.963 329.948 352.842 330.173 351.71 330.16Z" fill="#1890FF"/>
<path d="M352.53 330.16H138.37C135.986 330.117 133.702 329.193 131.959 327.567C130.216 325.94 129.137 323.725 128.93 321.35L118.41 175.22C118.312 174.093 118.451 172.958 118.819 171.888C119.186 170.818 119.774 169.837 120.544 169.008C121.313 168.179 122.248 167.521 123.288 167.075C124.327 166.629 125.449 166.406 126.58 166.42H340.74C343.122 166.463 345.405 167.385 347.147 169.01C348.89 170.635 349.97 172.847 350.18 175.22L360.7 321.35C360.799 322.478 360.661 323.614 360.294 324.685C359.928 325.756 359.34 326.738 358.57 327.568C357.801 328.399 356.865 329.058 355.825 329.505C354.784 329.951 353.662 330.174 352.53 330.16Z" fill="#1890FF"/>
<path opacity="0.5" d="M352.53 330.16H138.37C135.986 330.117 133.702 329.193 131.959 327.567C130.216 325.94 129.137 323.725 128.93 321.35L118.41 175.22C118.312 174.093 118.451 172.958 118.819 171.888C119.186 170.818 119.774 169.837 120.544 169.008C121.313 168.179 122.248 167.521 123.288 167.075C124.327 166.629 125.449 166.406 126.58 166.42H340.74C343.122 166.463 345.405 167.385 347.147 169.01C348.89 170.635 349.97 172.847 350.18 175.22L360.7 321.35C360.799 322.478 360.661 323.614 360.294 324.685C359.928 325.756 359.34 326.738 358.57 327.568C357.801 328.399 356.865 329.058 355.825 329.505C354.784 329.951 353.662 330.174 352.53 330.16Z" fill="white"/>
<path d="M341.06 170.82H126.9H126.18C120.71 171.27 121.83 179.6 127.35 179.6H341.87C347.4 179.6 347.32 171.27 341.78 170.82H341.06Z" fill="#1890FF"/>
<path d="M132.48 175.22C132.501 175.478 132.468 175.737 132.382 175.981C132.297 176.225 132.161 176.449 131.984 176.637C131.807 176.826 131.592 176.975 131.354 177.076C131.115 177.176 130.859 177.225 130.6 177.22C130.056 177.212 129.535 177.004 129.136 176.635C128.737 176.265 128.489 175.761 128.44 175.22C128.419 174.963 128.452 174.705 128.537 174.461C128.622 174.218 128.756 173.995 128.933 173.806C129.109 173.618 129.322 173.469 129.559 173.368C129.796 173.267 130.052 173.216 130.31 173.22C130.855 173.225 131.379 173.433 131.78 173.802C132.181 174.172 132.43 174.677 132.48 175.22Z" fill="#FAFAFA"/>
<path d="M139.35 175.22C139.371 175.478 139.338 175.737 139.252 175.981C139.167 176.225 139.031 176.449 138.854 176.637C138.677 176.826 138.462 176.975 138.224 177.076C137.985 177.176 137.728 177.225 137.47 177.22C136.926 177.212 136.405 177.004 136.006 176.635C135.607 176.265 135.359 175.761 135.31 175.22C135.289 174.963 135.322 174.705 135.407 174.461C135.492 174.218 135.626 173.995 135.802 173.806C135.978 173.618 136.192 173.469 136.429 173.368C136.666 173.267 136.922 173.216 137.18 173.22C137.725 173.225 138.249 173.433 138.65 173.802C139.051 174.172 139.3 174.677 139.35 175.22Z" fill="#FAFAFA"/>
<path d="M146.21 175.22C146.231 175.477 146.198 175.736 146.113 175.979C146.028 176.222 145.893 176.445 145.717 176.634C145.541 176.822 145.328 176.972 145.091 177.072C144.853 177.173 144.598 177.224 144.34 177.22C143.796 177.215 143.273 177.007 142.874 176.637C142.474 176.267 142.227 175.762 142.18 175.22C142.157 174.963 142.189 174.704 142.273 174.46C142.358 174.215 142.492 173.992 142.669 173.803C142.845 173.614 143.059 173.465 143.297 173.365C143.535 173.264 143.792 173.215 144.05 173.22C144.593 173.228 145.115 173.436 145.514 173.806C145.912 174.175 146.161 174.679 146.21 175.22Z" fill="#FAFAFA"/>
<path d="M346.85 315.58H142C141.135 315.566 140.305 315.23 139.673 314.639C139.041 314.048 138.652 313.243 138.58 312.38L129.93 192.21C129.891 191.798 129.941 191.382 130.076 190.99C130.21 190.598 130.426 190.24 130.71 189.938C130.994 189.636 131.338 189.399 131.721 189.24C132.104 189.082 132.516 189.007 132.93 189.02H337.83C338.694 189.032 339.523 189.365 340.156 189.955C340.788 190.545 341.178 191.348 341.25 192.21L349.91 312.38C349.947 312.798 349.895 313.219 349.757 313.614C349.618 314.01 349.396 314.372 349.107 314.675C348.817 314.978 348.465 315.216 348.076 315.372C347.687 315.528 347.269 315.599 346.85 315.58Z" fill="white"/>
<path d="M260.53 269.8L257.19 223.48L247.09 217.4H219.28L223.06 269.8H260.53Z" fill="white"/>
<path d="M260.53 270.28H223.06C222.936 270.283 222.816 270.238 222.724 270.154C222.633 270.07 222.578 269.954 222.57 269.83L218.8 217.43C218.795 217.364 218.804 217.298 218.827 217.236C218.849 217.174 218.884 217.118 218.93 217.07C218.974 217.021 219.028 216.981 219.088 216.953C219.148 216.926 219.214 216.911 219.28 216.91H247.09C247.178 216.913 247.263 216.937 247.34 216.98L257.44 223.06C257.508 223.099 257.565 223.154 257.607 223.22C257.649 223.286 257.674 223.362 257.68 223.44L261 269.76C261.007 269.827 260.999 269.896 260.976 269.96C260.954 270.024 260.917 270.082 260.87 270.13C260.826 270.177 260.774 270.214 260.715 270.24C260.657 270.266 260.594 270.279 260.53 270.28ZM223.53 269.28H260L256.72 223.73L247 217.88H219.8L223.53 269.28Z" fill="#1890FF"/>
<path d="M257.19 223.48L247.09 217.4L250.8 225.46L257.19 223.48Z" fill="#EBEBEB"/>
<path d="M250.8 225.94C250.708 225.94 250.617 225.913 250.54 225.864C250.462 225.814 250.4 225.743 250.36 225.66L246.65 217.6C246.607 217.505 246.594 217.4 246.614 217.298C246.634 217.195 246.685 217.102 246.76 217.03C246.839 216.962 246.938 216.921 247.042 216.912C247.146 216.903 247.25 216.927 247.34 216.98L257.44 223.06C257.521 223.109 257.587 223.18 257.63 223.265C257.672 223.35 257.69 223.446 257.68 223.54C257.667 223.632 257.628 223.719 257.568 223.789C257.508 223.86 257.429 223.913 257.34 223.94L250.94 225.94H250.8ZM248.19 218.62L251.06 224.87L256.06 223.34L248.19 218.62Z" fill="#1890FF"/>
<path d="M235 241C235.015 241.272 234.974 241.544 234.88 241.799C234.787 242.055 234.642 242.288 234.454 242.486C234.267 242.684 234.042 242.841 233.792 242.948C233.541 243.055 233.272 243.111 233 243.11C232.429 243.1 231.882 242.879 231.465 242.489C231.048 242.099 230.789 241.569 230.74 241C230.714 240.726 230.747 240.449 230.837 240.188C230.927 239.927 231.071 239.688 231.26 239.488C231.45 239.287 231.679 239.129 231.935 239.024C232.19 238.92 232.464 238.87 232.74 238.88C233.312 238.893 233.859 239.116 234.276 239.507C234.693 239.899 234.951 240.43 235 241Z" fill="#1890FF"/>
<path d="M248.7 241C248.724 241.274 248.69 241.55 248.6 241.809C248.509 242.069 248.365 242.306 248.175 242.506C247.986 242.705 247.757 242.862 247.503 242.967C247.248 243.071 246.975 243.12 246.7 243.11C246.128 243.1 245.58 242.879 245.161 242.49C244.742 242.1 244.482 241.57 244.43 241C244.413 240.728 244.453 240.455 244.546 240.198C244.639 239.941 244.784 239.706 244.971 239.508C245.159 239.309 245.385 239.151 245.636 239.043C245.887 238.935 246.157 238.88 246.43 238.88C247.004 238.888 247.555 239.11 247.974 239.502C248.394 239.894 248.653 240.428 248.7 241Z" fill="#1890FF"/>
<path d="M252.58 254.74C252.458 254.738 252.342 254.691 252.253 254.608C252.164 254.524 252.11 254.411 252.1 254.29C251.85 250.88 246.51 248.11 240.2 248.11C236.01 248.11 232.25 249.36 230.39 251.36C230.008 251.729 229.709 252.174 229.512 252.667C229.315 253.16 229.226 253.69 229.25 254.22C229.255 254.286 229.246 254.352 229.225 254.414C229.204 254.476 229.171 254.534 229.128 254.584C229.041 254.684 228.918 254.746 228.785 254.755C228.652 254.764 228.521 254.721 228.421 254.633C228.321 254.546 228.259 254.423 228.25 254.29C228.22 253.627 228.329 252.965 228.57 252.347C228.812 251.729 229.179 251.168 229.65 250.7C231.65 248.51 235.72 247.14 240.17 247.14C247.1 247.14 252.75 250.25 253.03 254.22C253.034 254.283 253.026 254.346 253.005 254.406C252.985 254.466 252.953 254.521 252.911 254.568C252.869 254.616 252.818 254.655 252.761 254.682C252.705 254.71 252.643 254.726 252.58 254.73V254.74Z" fill="#1890FF"/>
<path d="M227.17 236.72C227.048 236.718 226.931 236.671 226.84 236.59C226.749 236.498 226.698 236.374 226.698 236.245C226.698 236.116 226.749 235.992 226.84 235.9L228.97 233.61C229.061 233.522 229.183 233.473 229.31 233.473C229.437 233.473 229.558 233.522 229.65 233.61C229.695 233.655 229.73 233.708 229.754 233.766C229.779 233.824 229.791 233.887 229.791 233.95C229.791 234.013 229.779 234.076 229.754 234.134C229.73 234.192 229.695 234.245 229.65 234.29L227.52 236.58C227.474 236.626 227.419 236.662 227.359 236.686C227.299 236.71 227.235 236.722 227.17 236.72Z" fill="#1890FF"/>
<path d="M251.58 236.72C251.458 236.714 251.342 236.669 251.25 236.59L248.8 234.3C248.754 234.255 248.717 234.202 248.692 234.142C248.667 234.083 248.654 234.019 248.654 233.955C248.654 233.891 248.667 233.827 248.692 233.768C248.717 233.708 248.754 233.655 248.8 233.61C248.891 233.522 249.013 233.473 249.14 233.473C249.267 233.473 249.389 233.522 249.48 233.61L251.93 235.9C251.975 235.945 252.01 235.998 252.034 236.056C252.059 236.114 252.071 236.177 252.071 236.24C252.071 236.303 252.059 236.366 252.034 236.424C252.01 236.482 251.975 236.535 251.93 236.58C251.835 236.669 251.71 236.719 251.58 236.72Z" fill="#1890FF"/>
<path d="M216.26 280.15H218.52L221.78 284.49L221.47 280.15H223.75L224.31 287.99H222L218.76 283.68L219.07 287.99H216.79L216.26 280.15Z" fill="#1890FF"/>
<path d="M225.33 284.07C225.253 283.538 225.289 282.995 225.438 282.478C225.586 281.961 225.842 281.481 226.19 281.07C226.57 280.696 227.025 280.408 227.525 280.223C228.025 280.039 228.558 279.963 229.09 280C230.217 279.939 231.324 280.315 232.18 281.05C232.964 281.831 233.419 282.884 233.45 283.99C233.532 284.753 233.429 285.525 233.15 286.24C232.891 286.816 232.457 287.295 231.91 287.61C231.253 287.962 230.514 288.131 229.77 288.1C229.005 288.124 228.244 287.981 227.54 287.68C226.923 287.384 226.403 286.919 226.04 286.34C225.611 285.658 225.366 284.875 225.33 284.07ZM227.76 284.07C227.75 284.684 227.947 285.282 228.32 285.77C228.476 285.942 228.668 286.078 228.882 286.168C229.096 286.257 229.328 286.299 229.56 286.29C229.782 286.306 230.004 286.267 230.207 286.178C230.411 286.09 230.59 285.953 230.73 285.78C231.017 285.234 231.112 284.607 231 284C231.004 283.412 230.806 282.84 230.44 282.38C230.28 282.211 230.085 282.078 229.87 281.991C229.654 281.903 229.422 281.862 229.19 281.87C228.972 281.861 228.756 281.903 228.557 281.993C228.359 282.084 228.185 282.22 228.05 282.39C227.757 282.905 227.654 283.507 227.76 284.09V284.07Z" fill="#1890FF"/>
<path d="M238.15 280.15H241.75C242.343 280.131 242.935 280.23 243.49 280.44C243.929 280.624 244.32 280.908 244.63 281.27C244.945 281.637 245.186 282.062 245.34 282.52C245.502 283.012 245.603 283.523 245.64 284.04C245.717 284.694 245.666 285.356 245.49 285.99C245.352 286.429 245.108 286.828 244.78 287.15C244.506 287.44 244.161 287.654 243.78 287.77C243.315 287.905 242.834 287.979 242.35 287.99H238.76L238.15 280.15ZM240.7 281.93L241.01 286.21H241.6C241.965 286.234 242.33 286.176 242.67 286.04C242.894 285.91 243.059 285.699 243.13 285.45C243.244 285.006 243.272 284.544 243.21 284.09C243.229 283.48 243.042 282.881 242.68 282.39C242.494 282.222 242.276 282.095 242.038 282.015C241.801 281.936 241.549 281.907 241.3 281.93H240.7Z" fill="#1890FF"/>
<path d="M251.45 286.69H248.7L248.41 287.99H245.94L248.32 280.15H251L254.51 287.99H251.97L251.45 286.69ZM250.82 285L249.76 282.18L249.1 285H250.82Z" fill="#1890FF"/>
<path d="M253.37 280.15H260.73L260.87 282.09H258.4L258.82 287.99H256.4L255.98 282.09H253.51L253.37 280.15Z" fill="#1890FF"/>
<path d="M266.37 286.69H263.62L263.33 287.99H260.86L263.24 280.15H265.88L269.38 287.99H266.85L266.37 286.69ZM265.74 285L264.67 282.18L264 285H265.74Z" fill="#1890FF"/>
</svg>
