<svg width="24" height="24" viewBox="0 0 24 24" fill="none" xmlns="http://www.w3.org/2000/svg">
<path d="M10 5L11.0603 8.00339C11.4465 9.09868 12.0604 10.0882 12.8567 10.8988C13.6531 11.7094 14.6114 12.3204 15.661 12.6866L18 13.5L15.661 14.3134C14.6114 14.6796 13.6531 15.2906 12.8567 16.1012C12.0604 16.9118 11.4465 17.9013 11.0603 18.9966L10 22L8.94426 18.9966C8.55809 17.9013 7.94414 16.9118 7.14782 16.1012C6.35149 15.2906 5.39316 14.6796 4.34359 14.3134L2 13.5L4.34359 12.6866C5.39316 12.3204 6.35149 11.7094 7.14782 10.8988C7.94414 10.0882 8.55809 9.09868 8.94426 8.00339L10 5Z" fill="url(#paint0_linear_640_467)"/>
<path d="M17.5 2L18.0968 3.58265C18.3149 4.16366 18.6606 4.68847 19.1084 5.11847C19.5563 5.54847 20.095 5.87273 20.6849 6.06741L22 6.5L20.6849 6.93259C20.095 7.12727 19.5563 7.45153 19.1084 7.88153C18.6606 8.31154 18.3149 8.83634 18.0968 9.41735L17.5 11L16.9084 9.41735C16.6897 8.83672 16.3438 8.31228 15.896 7.88236C15.4483 7.45245 14.9099 7.12795 14.3204 6.93259L13 6.5L14.3204 6.06741C14.9099 5.87206 15.4483 5.54756 15.896 5.11764C16.3438 4.68773 16.6897 4.16328 16.9084 3.58265L17.5 2Z" fill="url(#paint1_linear_640_467)"/>
<defs>
<linearGradient id="paint0_linear_640_467" x1="10" y1="5" x2="10" y2="22" gradientUnits="userSpaceOnUse">
<stop offset="0.302699" stop-color="#349DFF"/>
<stop offset="1" stop-color="#B3DAFF"/>
</linearGradient>
<linearGradient id="paint1_linear_640_467" x1="17.5" y1="2" x2="17.5" y2="11" gradientUnits="userSpaceOnUse">
<stop offset="0.333013" stop-color="#349DFF"/>
<stop offset="1" stop-color="#A7D4FF"/>
</linearGradient>
</defs>
</svg>
